<?xml version="1.0" encoding="UTF-8" standalone="no"?>
<!-- Created with Inkscape (http://www.inkscape.org/) -->

<svg
   width="32"
   height="32"
   viewBox="0 0 32 32"
   version="1.1"
   id="svg1"
   xml:space="preserve"
   xmlns="http://www.w3.org/2000/svg"
   xmlns:svg="http://www.w3.org/2000/svg"><defs
     id="defs1" /><path
     id="path1-2"
     style="fill:#ffffff;stroke-width:0.0208333"
     d="m 4.6249999,4.843747 c -0.7534723,0 -1.3786893,0.2677228 -1.8769532,0.8027342 C 2.2497827,6.1814931 1.9999998,6.8096037 1.9999998,7.5312471 V 23.656249 c 0,0.721643 0.2606336,1.349754 0.7832033,1.884766 0.5225692,0.535011 1.1369355,0.802734 1.8417968,0.802734 h 7.3749991 c -3e-6,-0.895833 -1e-5,-1.791667 0,-2.6875 H 4.6249999 V 12.906248 H 27.374999 v 3.09375 c 0.847664,2e-6 1.695303,4e-6 2.542968,0 0.02733,-2.99e-4 0.0547,-2.24e-4 0.08203,0 V 7.5312471 c 0,-0.7216434 -0.257422,-1.349754 -0.771485,-1.8847659 C 28.714452,5.1114698 28.096873,4.843747 27.374999,4.843747 h -5.25 l 2.625,5.375001 h -3.5 l -2.625,-5.375001 h -2.625 l 2.625,5.375001 h -3.5 L 12.5,4.843747 H 9.8749994 L 12.5,10.218748 H 8.9999995 L 6.3749997,4.843747 Z M 16.021484,17.999998 c -1.120356,0 -2.021485,0.901129 -2.021485,2.021485 v 9.957032 C 13.999999,31.098872 14.901128,32 16.021484,32 h 13.95703 c 1.120356,0 2.021484,-0.901128 2.021484,-2.021485 v -9.957032 c 0,-1.120356 -0.901128,-2.021485 -2.021484,-2.021485 z m -0.02149,2 h 4 c 1,0 2,1.000001 2,2.000001 v 2 c 0,1 -1,2 -2,2 h -2 v 2 h 4 V 30 h -4 c -1,0 -2,-1 -2,-2.000001 v -2 c 0,-1 1,-2 2,-2 h 2 v -2 h -4 z m 8,0 h 2 c 1.999999,0 4,2.000001 4,4.000001 v 2 C 29.999999,28 27.999998,30 25.999999,30 h -2 v -2.000001 -6 z m 2,2.000001 v 6 c 0.999999,0 2,-1 2,-2 v -2 c 0,-1 -1.000001,-2 -2,-2 z" /></svg>
