<?xml version="1.0" encoding="UTF-8" standalone="no"?>
<!-- Created with Inkscape (http://www.inkscape.org/) -->

<svg
   width="32"
   height="32"
   viewBox="0 0 32 32"
   version="1.1"
   id="svg1"
   xmlns="http://www.w3.org/2000/svg"
   xmlns:svg="http://www.w3.org/2000/svg">
  <defs
     id="defs1" />
  <g
     id="layer1">
    <path
       id="rect5"
       style="baseline-shift:baseline;display:inline;overflow:visible;opacity:1;vector-effect:none;fill:#f9f9f9;enable-background:accumulate;stop-color:#000000;stop-opacity:1"
       d="m 8.8964844,2.5097656 c -3.5516825,0 -6.4570313,2.9053488 -6.4570313,6.4570313 V 23.103516 c 0,3.551682 2.9053488,6.457031 6.4570313,6.457031 H 22.541016 c 3.551682,0 6.457031,-2.905349 6.457031,-6.457031 V 8.9667969 c 0,-3.5516825 -2.905349,-6.4570313 -6.457031,-6.4570313 z M 26,8.6054688 c 0.01163,0.1183327 0.01758,0.2393911 0.01758,0.3613281 V 23.103516 c 0,1.952072 -1.52449,3.476562 -3.476562,3.476562 H 8.8964844 c -1.9520722,0 -3.4765625,-1.52449 -3.4765625,-3.476562 V 10 H 26 Z M 13,17 8,24 h 16 l -5,-5 -2,3 z" />
  </g>
</svg>
