<?xml version="1.0" encoding="UTF-8" standalone="no"?>
<!-- Created with Inkscape (http://www.inkscape.org/) -->

<svg
   width="32"
   height="32"
   viewBox="0 0 32 32"
   version="1.1"
   id="svg1"
   xml:space="preserve"
   xmlns="http://www.w3.org/2000/svg"
   xmlns:svg="http://www.w3.org/2000/svg"><defs
     id="defs1" /><path
     id="path73"
     style="baseline-shift:baseline;display:inline;overflow:visible;opacity:1;vector-effect:none;fill:#ffffff;stroke-linejoin:round;enable-background:accumulate;stop-color:#000000;stop-opacity:1"
     d="M 16,4.0019531 C 15.832882,4.0017035 15.668367,4.043336 15.521484,4.1230469 L 4.5214844,10.123047 C 4.2011602,10.29856 4.0019962,10.634743 4.0019531,11 H 4 v 12 h 0.00195 c 2.15e-5,0.365263 0.1991915,0.701456 0.5195313,0.876953 l 6.3691407,3.474609 C 10.371957,26.692197 9.9209883,25.971864 9.5488281,25.199219 9.5263171,25.172588 9.3859851,25.023752 9.2382812,24.492188 9.2108418,24.393436 9.1946324,24.277261 9.1894531,24.148438 L 6,22.408203 v -9.724609 l 8.492188,4.630859 c 1.835611,-1.040814 3.930065,-1.615576 6.0625,-1.613281 2.699718,0.0029 5.320319,0.881261 7.445312,2.439453 V 11 c -9.46e-4,-0.08514 -0.01276,-0.169808 -0.03516,-0.251953 -6.28e-4,-0.0039 -0.0013,-0.0078 -0.002,-0.01172 -6.41e-4,-0.0026 -0.0013,-0.0052 -0.002,-0.0078 -0.024,-0.08359 -0.0588,-0.163693 -0.103516,-0.238282 -0.0223,-0.03805 -0.04709,-0.07459 -0.07422,-0.109375 -0.02493,-0.03086 -0.05167,-0.06021 -0.08008,-0.08789 -0.0032,-0.0039 -0.0065,-0.0078 -0.0098,-0.01172 l -0.0039,-0.0039 c -0.02312,-0.02131 -0.04724,-0.04151 -0.07227,-0.06055 -0.0083,-0.0073 -0.01681,-0.01445 -0.02539,-0.02149 l -0.0078,-0.0039 c -0.02277,-0.01661 -0.04622,-0.03226 -0.07031,-0.04687 -0.01157,-0.0074 -0.02329,-0.01457 -0.03516,-0.02148 L 27.449094,10.10744 16.478516,4.1230469 C 16.331633,4.043336 16.167118,4.0017035 16,4.0019531 Z M 16,6.1386719 24.914062,11 23.130859,11.972656 16,15.861328 7.0859375,11 Z m 5.767578,10.7421871 -0.06641,0.002 c 0.01018,0.0023 0.02038,0.0082 0.03125,0.0078 0.0126,-8.4e-5 0.02305,-0.0076 0.03516,-0.0098 z m -1.214844,0.820313 c -3.829042,-0.0041 -7.650947,2.337287 -9.289062,5.890625 -0.239409,0.243732 -0.04791,0.486737 0.08008,0.730469 1.749494,3.643701 5.816239,5.937482 9.830078,5.6875 3.753508,-0.166613 7.321814,-2.530461 8.865234,-5.96875 0.196495,-0.271156 -0.18185,-0.542427 -0.24414,-0.8125 -1.721751,-3.365424 -5.413146,-5.523238 -9.242188,-5.527344 z m 1.214844,1.179687 c 1.351597,-0.05203 2.570931,1.29385 2.246094,2.640625 -0.274264,1.44093 -2.083693,2.194116 -3.337891,1.486328 -1.180945,-0.55245 -1.599562,-2.229477 -0.746093,-3.240234 0.432009,-0.56061 1.13314,-0.889558 1.83789,-0.886719 z m 3.34375,2.478516 c 0.958439,0.655344 1.770986,1.52149 2.367188,2.517578 -1.61365,2.775655 -5.004518,4.379289 -8.171875,3.800781 -2.28691,-0.37392 -4.363461,-1.8091 -5.542969,-3.800781 0.595952,-0.995762 1.40915,-1.860634 2.367187,-2.515625 -0.472236,1.994245 0.727291,4.152459 2.603516,4.919922 2.086651,0.954183 4.814878,0.114273 5.919922,-1.917969 0.513715,-0.900811 0.67847,-1.990936 0.457031,-3.003906 z" /></svg>
