<?xml version="1.0" encoding="UTF-8" standalone="no"?>
<!-- Created with Inkscape (http://www.inkscape.org/) -->

<svg
   width="32"
   height="32"
   viewBox="0 0 32 32"
   version="1.1"
   id="svg1"
   xmlns="http://www.w3.org/2000/svg"
   xmlns:svg="http://www.w3.org/2000/svg">
  <defs
     id="defs1" />
  <g
     id="layer1">
    <path
       id="path15"
       style="baseline-shift:baseline;display:inline;overflow:visible;opacity:1;vector-effect:none;fill:#ffffff;enable-background:accumulate;stop-color:#000000;stop-opacity:1"
       d="m 2,2 v 28 h 28 v -2 h -4 v -2 h -2 v 2 h -6 v -2 h -2 v 2 H 10 V 26 H 8 v 2 H 4 V 24 H 6 V 22 H 4 V 16 H 6 V 14 H 4 V 8 H 6 V 6 H 4 V 2 Z M 24.390625,5.7011719 C 24.026234,5.6989196 23.66974,5.7321785 23.324219,5.8007812 21.942135,6.0751924 20.811493,6.8453663 19.914062,7.75 c -1.794859,1.8092675 -2.815186,4.201113 -3.33789,5.777344 -0.585986,1.76706 -1.342305,4.345514 -2.564453,5.953125 -0.611074,0.803805 -1.276912,1.335542 -2.076172,1.570312 -0.79926,0.234771 -1.827734,0.220034 -3.3437501,-0.429687 l -1.1835938,2.757812 c 1.9839838,0.850279 3.8156599,1.006287 5.3730469,0.548828 1.557387,-0.457458 2.744897,-1.480881 3.619141,-2.630859 1.748487,-2.299956 2.491964,-5.221545 3.023437,-6.824219 0.421578,-1.271282 1.402025,-3.38052 2.621094,-4.6093748 0.609534,-0.6144271 1.238612,-0.9966787 1.865234,-1.1210937 0.626622,-0.124415 1.320119,-0.054022 2.31836,0.5449219 L 27.771484,6.7128906 C 26.645165,6.0370987 25.483799,5.7079286 24.390625,5.7011719 Z" />
  </g>
</svg>
