<?xml version="1.0" encoding="UTF-8" standalone="no"?>
<!-- Created with Inkscape (http://www.inkscape.org/) -->

<svg
   width="32"
   height="32"
   viewBox="0 0 32 32"
   version="1.1"
   id="svg1"
   xml:space="preserve"
   xmlns="http://www.w3.org/2000/svg"
   xmlns:svg="http://www.w3.org/2000/svg"><defs
     id="defs1" /><path
     id="path12"
     style="baseline-shift:baseline;display:inline;overflow:visible;opacity:1;vector-effect:none;fill:#ffffff;stroke-linejoin:round;paint-order:stroke fill markers;enable-background:accumulate;stop-color:#000000;stop-opacity:1"
     d="M 8.7539063,1.9785156 A 1.0001,1.0001 0 0 0 7.7792969,2.7578125 L 6.9394531,6.4804688 3.140625,6.1289063 A 1.0001,1.0001 0 0 0 2.5371094,7.9843752 l 3.28125,1.947265 L 4.3085938,13.4375 a 1.0001,1.0001 0 0 0 1.578125,1.146484 l 2.8671875,-2.517578 2.8671877,2.517578 A 1.0001,1.0001 0 0 0 13.199219,13.4375 l -1.509766,-3.5058598 3.28125,-1.947265 A 1.0001,1.0001 0 0 0 14.367188,6.1289063 L 10.568359,6.4804688 9.7285156,2.7578125 A 1.0001,1.0001 0 0 0 8.7539063,1.9785156 Z M 22.996094,4.2773438 a 1.0001,1.0001 0 0 0 -0.976562,0.78125 l -1.042969,4.6269534 -4.722656,-0.4375 a 1.0001,1.0001 0 0 0 -0.603516,1.8554678 l 4.078125,2.421875 -1.875,4.357422 a 1.0001,1.0001 0 0 0 1.578125,1.146485 l 3.564453,-3.13086 3.5625,3.13086 a 1.0001,1.0001 0 0 0 1.578125,-1.146485 l -1.875,-4.357422 4.078125,-2.421875 A 1.0001,1.0001 0 0 0 29.736328,9.2480472 l -4.722656,0.4375 -1.042969,-4.6269534 a 1.0001,1.0001 0 0 0 -0.974609,-0.78125 z M 13.96875,16.021484 a 1.0001,1.0001 0 0 0 -0.974609,0.779297 l -0.839844,3.722656 -3.7988282,-0.351562 a 1.0001,1.0001 0 0 0 -0.6035157,1.855469 l 3.2812499,1.947265 -1.5097655,3.50586 a 1.0001,1.0001 0 0 0 1.5781255,1.146484 l 2.867187,-2.517578 2.867188,2.517578 a 1.0001,1.0001 0 0 0 1.578125,-1.146484 l -1.509766,-3.50586 3.28125,-1.947265 a 1.0001,1.0001 0 0 0 -0.603515,-1.855469 l -3.798829,0.351562 -0.839843,-3.722656 a 1.0001,1.0001 0 0 0 -0.97461,-0.779297 z" /></svg>
