<?xml version="1.0" encoding="UTF-8" standalone="no"?>
<!-- Created with Inkscape (http://www.inkscape.org/) -->

<svg
   width="32"
   height="32"
   viewBox="0 0 32 32"
   version="1.1"
   id="svg1"
   xml:space="preserve"
   xmlns="http://www.w3.org/2000/svg"
   xmlns:svg="http://www.w3.org/2000/svg"><defs
     id="defs1" /><path
     id="path12"
     style="baseline-shift:baseline;display:inline;overflow:visible;opacity:1;vector-effect:none;fill:#ffffff;stroke-linejoin:round;paint-order:stroke fill markers;enable-background:accumulate;stop-color:#000000;stop-opacity:1"
     d="M 8.7539063,1.9785156 A 1.0001,1.0001 0 0 0 7.7792969,2.7578125 L 6.9394531,6.4804688 3.140625,6.1289063 A 1.0001,1.0001 0 0 0 2.5371094,7.9843752 l 3.28125,1.947265 L 4.3085938,13.4375 a 1.0001,1.0001 0 0 0 1.578125,1.146484 l 2.8671875,-2.517578 2.8671877,2.517578 A 1.0001,1.0001 0 0 0 13.199219,13.4375 l -1.509766,-3.5058598 3.28125,-1.947265 A 1.0001,1.0001 0 0 0 14.367188,6.1289063 L 10.568359,6.4804688 9.7285156,2.7578125 A 1.0001,1.0001 0 0 0 8.7539063,1.9785156 Z M 22.996094,4.2773438 a 1.0001,1.0001 0 0 0 -0.976562,0.78125 l -1.042969,4.6269534 -4.722656,-0.4375 A 1.0001,1.0001 0 0 0 15.650391,11.103515 L 19.728516,13.52539 18.664063,16 c 1.405693,-5.39e-4 2.811096,-1.56e-4 4.216797,0 L 22.996094,15.898437 23.111328,16 c 1.405077,1.7e-4 2.809769,-1.3e-5 4.214844,0 l -1.064453,-2.47461 4.078125,-2.421875 A 1.0001,1.0001 0 0 0 29.736328,9.2480472 l -4.722656,0.4375 -1.042969,-4.6269534 a 1.0001,1.0001 0 0 0 -0.974609,-0.78125 z M 13.96875,16.021484 a 1.0001,1.0001 0 0 0 -0.974609,0.779297 l -0.185547,0.820313 c 0.4601,-0.609769 1.084271,-1.096179 1.794922,-1.371094 A 1.0001,1.0001 0 0 0 13.96875,16.021484 Z m -5.7480469,4.146485 a 1.0001,1.0001 0 0 0 -0.46875,1.859375 l 3.2812499,1.947265 -1.5097655,3.50586 a 1.0001,1.0001 0 0 0 1.5781255,1.146484 l 0.896484,-0.787109 c -0.01313,-2.443003 0.01755,-4.887103 0.0039,-7.330079 l -3.6464782,-0.33789 a 1.0001,1.0001 0 0 0 -0.1347657,-0.0039 z" /><path
     id="rect3"
     style="fill:#ffffff;fill-opacity:1;stroke:none;stroke-width:3;stroke-linejoin:round;stroke-dasharray:none;stroke-opacity:1;paint-order:stroke fill markers"
     d="M 16.021484,18 C 14.901128,18 14,18.901128 14,20.021484 v 9.957032 C 14,31.098872 14.901128,32 16.021484,32 H 29.978516 C 31.098872,32 32,31.098872 32,29.978516 V 20.021484 C 32,18.901128 31.098872,18 29.978516,18 Z M 16,20 h 4 c 1,0 2,1 2,2 v 2 c 0,1 -1,2 -2,2 h -2 v 2 h 4 v 2 h -4 c -1,0 -2,-1 -2,-2 v -2 c 0,-1 1,-2 2,-2 h 2 v -2 h -4 z m 8,0 h 2 c 2,0 4,2 4,4 v 2 c 0,2 -2,4 -4,4 h -2 v -2 -6 z m 2,2 v 6 c 1,0 2,-1 2,-2 v -2 c 0,-1 -1,-2 -2,-2 z" /></svg>
