<?xml version="1.0" encoding="UTF-8" standalone="no"?>
<!-- Created with Inkscape (http://www.inkscape.org/) -->

<svg
   width="32"
   height="32"
   viewBox="0 0 32 32"
   version="1.1"
   id="svg1"
   xml:space="preserve"
   xmlns="http://www.w3.org/2000/svg"
   xmlns:svg="http://www.w3.org/2000/svg"><defs
     id="defs1" /><g
     style="fill:#ffffff;stroke-width:0.71875"
     id="g1"
     transform="matrix(0.03478261,0,0,0.03478261,-0.50434783,32.608696)"><path
       d="m 472,-159 q -33,0 -56.5,-24 -23.5,-24 -23.5,-57 0,-33 23.5,-56.5 Q 439,-320 472,-320 l 24,-23 q 8,-8 18.5,-12.5 10.5,-4.5 21.5,-4.5 23,0 39.5,17 16.5,17 16.5,40 v 17 q 0,20 13,33 13,13 33,13 15,0 27,-9 12,-9 17,-23 l 12,-33 q 9,-24 29,-39.5 20,-15.5 46,-15.5 11,-28 17.5,-58 6.5,-30 6.5,-62 0,-89 -44.5,-162.5 Q 704,-716 632,-758 v 38 q 0,33 -23.5,56.5 Q 585,-640 552,-640 h -40 v 80 q 0,17 -11.5,28.5 Q 489,-520 472,-520 h -40 v 68 q 0,22 -15,37 -15,15 -37,15 -14,0 -25.5,-6 -11.5,-6 -18.5,-17 l -64,-97 h -40 v 40 q 0,31 -21,53 -21,22 -50,26 26,104 112.5,173 86.5,69 198.5,69 z m 80,-241 q -17,0 -28.5,-11.5 Q 512,-423 512,-440 q 0,-17 11.5,-28.5 Q 535,-480 552,-480 h 40 q 17,0 28.5,11.5 11.5,11.5 11.5,28.5 0,17 -11.5,28.5 Q 609,-400 592,-400 Z m 93,-120 q -20,0 -31.5,-15.5 Q 602,-551 608,-570 l 15,-44 q 4,-12 14,-19 10,-7 22,-7 20,0 31.5,15.5 11.5,15.5 5.5,34.5 l -15,44 q -4,12 -14,19 -10,7 -22,7 z M 472,-80 Q 389,-80 316,-111.5 243,-143 189,-197 135,-251 103.5,-324 72,-397 72,-480 q 0,-83 31.5,-156 31.5,-73 85.5,-127 54,-54 127,-85.5 73,-31.5 156,-31.5 83,0 156,31.5 73,31.5 127,85.5 54,54 85.5,127 31.5,73 31.5,156 0,83 -31.5,156 -31.5,73 -85.5,127 -54,54 -127,85.5 Q 555,-80 472,-80 Z"
       id="path1"
       style="stroke-width:0.71875" /></g></svg>
