<?xml version="1.0" encoding="UTF-8" standalone="no"?>
<!-- Created with Inkscape (http://www.inkscape.org/) -->

<svg
   width="32"
   height="32"
   viewBox="0 0 32 32"
   version="1.1"
   id="svg1"
   xml:space="preserve"
   xmlns="http://www.w3.org/2000/svg"
   xmlns:svg="http://www.w3.org/2000/svg"><defs
     id="defs1" /><g
     style="fill:#ffffff"
     id="g1"
     transform="matrix(0.025,0,0,0.025,0,24)"><g
       style="fill:#ffffff;stroke-width:0.782431"
       id="g2"
       transform="matrix(1.2780679,0,0,1.2780679,25.888374,293.47259)"><path
         d="M 189,-160 Q 129,-160 86.5,-203 44,-246 42,-307 q 0,-9 1,-18 1,-9 3,-18 l 84,-336 q 14,-54 57,-87.5 43,-33.5 98,-33.5 h 390 q 55,0 98,33.5 43,33.5 57,87.5 l 84,336 q 2,9 3.5,18.5 1.5,9.5 1.5,18.5 0,61 -43.5,103.5 Q 832,-160 771,-160 q -42,0 -78,-22 -36,-22 -54,-60 l -28,-58 q -5,-10 -15,-15 -10,-5 -21,-5 H 385 q -11,0 -21,5 -10,5 -15,15 l -28,58 q -18,38 -54,60 -36,22 -78,22 z m 3,-80 q 19,0 34.5,-10 15.5,-10 23.5,-27 l 28,-57 q 15,-31 44,-48.5 29,-17.5 63,-17.5 h 190 q 34,0 63,18 29,18 45,48 l 28,57 q 8,17 23.5,27 15.5,10 34.5,10 28,0 48,-18.5 20,-18.5 21,-46.5 0,1 -2,-19 l -84,-335 q -7,-27 -28,-44 -21,-17 -49,-17 H 285 q -28,0 -49.5,17 -21.5,17 -27.5,44 l -84,335 q -2,6 -2,18 0,28 20.5,47 20.5,19 49.5,19 z M 568.5,-531.5 Q 580,-543 580,-560 580,-577 568.5,-588.5 557,-600 540,-600 q -17,0 -28.5,11.5 -11.5,11.5 -11.5,28.5 0,17 11.5,28.5 11.5,11.5 28.5,11.5 17,0 28.5,-11.5 z m 80,-80 Q 660,-623 660,-640 660,-657 648.5,-668.5 637,-680 620,-680 q -17,0 -28.5,11.5 -11.5,11.5 -11.5,28.5 0,17 11.5,28.5 11.5,11.5 28.5,11.5 17,0 28.5,-11.5 z m 0,160 Q 660,-463 660,-480 660,-497 648.5,-508.5 637,-520 620,-520 q -17,0 -28.5,11.5 -11.5,11.5 -11.5,28.5 0,17 11.5,28.5 11.5,11.5 28.5,11.5 17,0 28.5,-11.5 z m 80,-80 Q 740,-543 740,-560 740,-577 728.5,-588.5 717,-600 700,-600 q -17,0 -28.5,11.5 -11.5,11.5 -11.5,28.5 0,17 11.5,28.5 11.5,11.5 28.5,11.5 17,0 28.5,-11.5 z m -367,63 Q 370,-477 370,-490 v -40 h 40 q 13,0 21.5,-8.5 8.5,-8.5 8.5,-21.5 0,-13 -8.5,-21.5 Q 423,-590 410,-590 h -40 v -40 q 0,-13 -8.5,-21.5 -8.5,-8.5 -21.5,-8.5 -13,0 -21.5,8.5 -8.5,8.5 -8.5,21.5 v 40 h -40 q -13,0 -21.5,8.5 -8.5,8.5 -8.5,21.5 0,13 8.5,21.5 8.5,8.5 21.5,8.5 h 40 v 40 q 0,13 8.5,21.5 8.5,8.5 21.5,8.5 13,0 21.5,-8.5 z M 480,-480 Z"
         id="path1"
         style="stroke-width:0.782431" /></g></g></svg>
