<?xml version="1.0" encoding="UTF-8" standalone="no"?>
<!-- Created with Inkscape (http://www.inkscape.org/) -->

<svg
   width="32"
   height="32"
   viewBox="0 0 32 32"
   version="1.1"
   id="svg1"
   xml:space="preserve"
   xmlns="http://www.w3.org/2000/svg"
   xmlns:svg="http://www.w3.org/2000/svg"><defs
     id="defs1" /><path
     id="path12"
     style="baseline-shift:baseline;display:inline;overflow:visible;opacity:1;vector-effect:none;fill:#ffffff;stroke-linejoin:round;paint-order:stroke fill markers;enable-background:accumulate;stop-color:#000000;stop-opacity:1"
     d="M 8.7539063,1.9785156 A 1.0001,1.0001 0 0 0 7.7792969,2.7578125 L 6.9394531,6.4804688 3.140625,6.1289063 A 1.0001,1.0001 0 0 0 2.5371094,7.9843752 l 3.28125,1.947265 L 4.3085938,13.4375 a 1.0001,1.0001 0 0 0 1.578125,1.146484 l 2.8671875,-2.517578 2.8671877,2.517578 A 1.0001,1.0001 0 0 0 13.199219,13.4375 l -1.509766,-3.5058598 3.28125,-1.947265 A 1.0001,1.0001 0 0 0 14.367188,6.1289063 L 10.568359,6.4804688 9.7285156,2.7578125 A 1.0001,1.0001 0 0 0 8.7539063,1.9785156 Z M 22.996094,4.2773438 a 1.0001,1.0001 0 0 0 -0.976562,0.78125 l -1.042969,4.6269534 -4.722656,-0.4375 A 1.0001,1.0001 0 0 0 15.650391,11.103515 L 19.728516,13.52539 18.664063,16 c 1.405511,8.9e-5 2.811285,-1.18e-4 4.216797,0 L 22.996094,15.898437 23.111328,16 c 1.404947,1.13e-4 2.809899,7e-5 4.214844,0 l -1.064453,-2.47461 4.078125,-2.421875 A 1.0001,1.0001 0 0 0 29.736328,9.2480472 l -4.722656,0.4375 -1.042969,-4.6269534 a 1.0001,1.0001 0 0 0 -0.974609,-0.78125 z M 8,18 c -1.108,0 -2,0.892 -2,2 v 10 c 0,1.108 0.892,2 2,2 h 22 c 1.108,0 2,-0.892 2,-2 V 20 c 0,-1.108 -0.892,-2 -2,-2 z m 2,2 h 2 1 a 1,1 0 0 1 1,1 1,1 0 0 1 -1,1 h -1 -2 v 2 2 2 h 2 v -2 -1 a 1,1 0 0 1 1,-1 1,1 0 0 1 1,1 v 1 2 a 2,2 0 0 1 -2,2 H 10 A 2,2 0 0 1 8,28 v -2 -2 -2 a 2,2 0 0 1 2,-2 z m 8,0 h 2 a 2,2 0 0 1 2,2 v 2 a 2,2 0 0 1 -2,2 h -2 v 2 1 a 1,1 0 0 1 -1,1 1,1 0 0 1 -1,-1 v -1 -2 -2 -2 a 2,2 0 0 1 2,-2 z m 7,0 a 1,1 0 0 1 1,1 v 1 2 2 2 h 2 v -2 -2 -2 -1 a 1,1 0 0 1 1,-1 1,1 0 0 1 1,1 v 1 2 2 2 a 2,2 0 0 1 -2,2 h -2 a 2,2 0 0 1 -2,-2 v -2 -2 -2 -1 a 1,1 0 0 1 1,-1 z m -7,2 v 2 h 2 v -2 z" /></svg>
