<?xml version="1.0" encoding="UTF-8" standalone="no"?>
<!-- Created with Inkscape (http://www.inkscape.org/) -->

<svg
   width="32"
   height="32"
   viewBox="0 0 32 32"
   version="1.1"
   id="svg1"
   xml:space="preserve"
   xmlns="http://www.w3.org/2000/svg"
   xmlns:svg="http://www.w3.org/2000/svg"><defs
     id="defs1" /><path
     id="rect354"
     style="fill:#ffffff;fill-opacity:1;stroke:none;stroke-width:2;stroke-linejoin:round;stroke-dasharray:none;stroke-opacity:1;paint-order:stroke fill markers"
     d="M 4,2 C 2.892,2 2,2.892 2,4 v 24 c 0,1.108 0.892,2 2,2 h 24 c 1.108,0 2,-0.892 2,-2 V 4 C 30,2.892 29.108,2 28,2 Z m 2,4 h 12 v 2 h 2 V 6 h 2 v 2 h -2 v 2 h 2 v 2 h -2 v 2 h 2 v 2 h -2 v 2 h 2 v 2 h -2 v 2 h 2 v 2 h -2 v 2 h -2 v -2 h -2 v 2 h -2 v -2 h -2 v 2 H 6 V 8 Z m 12,18 h 2 v -2 h -2 z m 0,-2 v -2 h -2 v 2 z m 0,-2 h 2 v -2 h -2 z m 0,-2 v -2 h -2 v 2 z m 0,-2 h 2 v -2 h -2 z m 0,-2 v -2 h -2 v 2 z m 0,-2 h 2 v -2 h -2 z m 0,-2 V 8 h -2 v 2 z m 6,-4 h 2 V 8 H 24 Z M 12,8 v 2 h 2 V 8 Z m 12,2 h 2 v 2 h -2 z m -12,2 v 2 h 2 v -2 z m 12,2 h 2 v 2 h -2 z m -12,2 v 2 h 2 v -2 z m 12,2 h 2 v 2 h -2 z m -12,2 v 2 h 2 v -2 z m 12,2 h 2 v 2 h -2 z" /></svg>
