<?xml version="1.0" encoding="UTF-8" standalone="no"?>
<!-- Created with Inkscape (http://www.inkscape.org/) -->

<svg
   width="32"
   height="32"
   viewBox="0 0 32 32"
   version="1.1"
   id="svg1"
   xml:space="preserve"
   xmlns="http://www.w3.org/2000/svg"
   xmlns:svg="http://www.w3.org/2000/svg"><defs
     id="defs1" /><g
     style="fill:#ffffff;stroke-width:0.556818"
     id="g355"
     transform="matrix(0.03741497,0,0,0.03741497,-1.9591837,33.959183)"><path
       id="path1"
       style="stroke-width:0.556818"
       d="m 403.00244,-863.99563 -21.97691,114.00851 c -15.33333,6 -30.19472,12.98509 -44.52805,20.98509 -14.33333,8 -27.84185,17.31344 -40.50852,27.98011 l -109.98898,-36.95881 -76.99751,132.95773 87.02024,76.00567 c -1.33333,8 -2.36103,16.01279 -3.0277,24.01279 -0.66667,8 -0.99183,16.33794 -0.99183,25.00461 0,8.66667 0.32516,17.00461 0.99183,25.00461 0.66667,8 1.69437,16.01278 3.0277,24.01278 l -87.02024,76.00568 76.99751,132.95773 109.98898,-36.95881 c 12.66667,10.66667 26.17519,19.98011 40.50852,27.98011 14.33333,8 29.19472,14.98509 44.52805,20.98509 l 21.97691,114.008507 h 153.99502 l 21.97691,-114.008507 c 15.33333,-6 30.19472,-12.98509 44.52805,-20.98509 14.33333,-8 27.84185,-17.31344 40.50852,-27.98011 l 109.98898,36.95881 76.9975,-132.95773 -87.02023,-76.00568 c 1.33333,-8 2.36103,-16.01278 3.0277,-24.01278 0.66667,-8 0.99183,-16.33794 0.99183,-25.00461 0,-8.66667 -0.32516,-17.00461 -0.99183,-25.00461 -0.66667,-8 -1.69437,-16.01279 -3.0277,-24.01279 l 87.02023,-76.00567 -76.9975,-132.95773 -109.98898,36.95881 c -12.66667,-10.66667 -26.17519,-19.98011 -40.50852,-27.98011 -14.33333,-8 -29.19472,-14.98509 -44.52805,-20.98509 l -21.97691,-114.00851 z m -83.36611,223.63208 h 106.90908 v 106.90908 h 106.90908 v -106.90908 h 106.90908 v 320.72724 H 533.45449 V -426.54539 H 426.54541 v 106.90908 H 319.63633 v -106.90908 -106.90908 z" /></g></svg>
