<?xml version="1.0" encoding="UTF-8" standalone="no"?>
<!-- Created with Inkscape (http://www.inkscape.org/) -->

<svg
   width="32"
   height="32"
   viewBox="0 0 32 32"
   version="1.1"
   id="svg1"
   xml:space="preserve"
   xmlns="http://www.w3.org/2000/svg"
   xmlns:svg="http://www.w3.org/2000/svg"><defs
     id="defs1" /><path
     id="path356"
     style="baseline-shift:baseline;display:inline;overflow:visible;opacity:1;vector-effect:none;fill:#ffffff;stroke-linejoin:round;paint-order:stroke fill markers;enable-background:accumulate;stop-color:#000000;stop-opacity:1"
     d="m 15.933594,6.002013 a 1.0001,1.0001 0 0 0 -0.38086,0.1035157 L 3.5527344,12.105529 a 1.0001,1.0001 0 0 0 0,1.789062 l 11.9999996,6 a 1.0001,1.0001 0 0 0 0.894532,0 l 12,-6 a 1.0001,1.0001 0 0 0 0,-1.789062 l -12,-6.0000003 A 1.0001,1.0001 0 0 0 15.933594,6.002013 Z M 16,8.1172474 25.763672,13.00006 16,17.882872 6.2363281,13.00006 Z M 5.5292969,17.117248 3.5527344,18.105529 c -0.7371605,0.368551 -0.7371605,1.420511 0,1.789062 l 11.9999996,6 c 0.28156,0.140783 0.612972,0.140783 0.894532,0 l 12,-6 c 0.737161,-0.368551 0.737161,-1.420511 0,-1.789062 l -1.970704,-0.986328 c -0.743677,0.375172 -1.488426,0.747932 -2.234374,1.11914 L 25.763672,19.00006 16,23.882872 6.2363281,19.00006 7.7675781,18.234435 C 7.0225359,17.859708 6.2767678,17.486326 5.5292969,17.117248 Z" /></svg>
