<?xml version="1.0" encoding="UTF-8" standalone="no"?>
<!-- Created with Inkscape (http://www.inkscape.org/) -->

<svg
   width="32"
   height="32"
   viewBox="0 0 32 32"
   version="1.1"
   id="svg1"
   xml:space="preserve"
   xmlns="http://www.w3.org/2000/svg"
   xmlns:svg="http://www.w3.org/2000/svg"><defs
     id="defs1" /><path
     id="path73"
     style="baseline-shift:baseline;display:inline;overflow:visible;vector-effect:none;fill:#ffffff;fill-opacity:1;stroke-linejoin:round;enable-background:accumulate;stop-color:#000000"
     d="m 16,3.0019531 a 1.0001,1.0001 0 0 0 -0.478516,0.1210938 l -10.9999996,6 A 1.0001,1.0001 0 0 0 4.0019531,10 H 4 v 12 h 0.00195 a 1,1 0 0 0 0.5195313,0.876953 l 10.0273437,5.46875 A 10,10 0 0 1 13.287109,25.382812 L 6,21.408203 v -9.724609 l 9,4.908203 V 17 a 10,10 0 0 1 8,-4 10,10 0 0 1 5,1.339844 V 10 a 1.0001,1.0001 0 0 0 -0.03516,-0.2519531 1.0001,1.0001 0 0 0 -0.002,-0.011719 1.0001,1.0001 0 0 0 -0.002,-0.00781 1.0001,1.0001 0 0 0 -0.103516,-0.2382812 1.0001,1.0001 0 0 0 -0.07422,-0.109375 1.0001,1.0001 0 0 0 -0.08008,-0.087891 1.0001,1.0001 0 0 0 -0.0098,-0.011719 1.0001,1.0001 0 0 0 -0.0039,-0.00391 1.0001,1.0001 0 0 0 -0.07227,-0.060547 1.0001,1.0001 0 0 0 -0.02539,-0.021484 1.0001,1.0001 0 0 0 -0.0078,-0.00391 1.0001,1.0001 0 0 0 -0.07031,-0.046875 1.0001,1.0001 0 0 0 -0.03516,-0.021484 l -0.0293,-0.015625 -10.970703,-5.984375 A 1.0001,1.0001 0 0 0 16,3.0019531 Z M 16,5.1386719 24.914062,10 23.130859,10.972656 16,14.861328 7.0859375,10 Z M 22,16 v 2.101562 C 22.323597,18.034474 22.658091,18 23,18 c 0.341909,0 0.676403,0.03447 1,0.101562 V 16 Z M 18.757812,17.34375 17.34375,18.757812 18.835938,20.25 C 19.208687,19.690641 19.690641,19.208687 20.25,18.835938 Z m 8.484376,0 L 25.75,18.835938 c 0.419519,0.279561 0.796211,0.620763 1.115234,1.009765 0.106341,0.129667 0.205641,0.264457 0.298828,0.404297 L 28.65625,18.757812 Z M 23,20 A 3,3 0 0 0 20.025391,22.609375 3,3 0 0 0 20,23 a 3,3 0 0 0 3,3 3,3 0 0 0 3,-3 3,3 0 0 0 -3,-3 z m -7,2 v 2 h 2.101562 c -0.03354,-0.161798 -0.05917,-0.325376 -0.07617,-0.492188 C 18.008386,23.341001 18,23.170955 18,23 c 0,-0.341909 0.03447,-0.676403 0.101562,-1 z m 11.898438,0 C 27.965526,22.323597 28,22.658091 28,23 c 0,0.341909 -0.03447,0.676403 -0.101562,1 H 30 v -2 z m -9.0625,3.75 -1.492188,1.492188 1.414062,1.414062 L 20.25,27.164062 C 19.690641,26.791313 19.208687,26.309359 18.835938,25.75 Z m 8.328124,0 C 26.791313,26.309359 26.309359,26.791313 25.75,27.164062 l 1.492188,1.492188 1.414062,-1.414062 z M 22,27.898438 V 30 h 2 V 27.898438 C 23.676403,27.965526 23.341909,28 23,28 22.658091,28 22.323597,27.96553 22,27.898438 Z" /></svg>
