<?xml version="1.0" encoding="UTF-8" standalone="no"?>
<!-- Created with Inkscape (http://www.inkscape.org/) -->

<svg
   width="32"
   height="32"
   viewBox="0 0 32 32"
   version="1.1"
   id="svg1"
   xml:space="preserve"
   xmlns="http://www.w3.org/2000/svg"
   xmlns:svg="http://www.w3.org/2000/svg"><defs
     id="defs1" /><path
     id="path369"
     style="baseline-shift:baseline;display:inline;overflow:visible;opacity:1;vector-effect:none;fill:#ffffff;stroke-linejoin:round;paint-order:stroke fill markers;enable-background:accumulate;stop-color:#000000;stop-opacity:1"
     d="m 5.4140625,2.5859375 -2.828125,2.828125 4,4 2.828125,-2.828125 z M 16,4 v 2 c 5.534692,0 10,4.465308 10,10 0,5.534692 -4.465308,10 -10,10 v 2 C 22.615572,28 28,22.615572 28,16 28,9.3844276 22.615572,4 16,4 Z m 0,4 c -4.406433,0 -8,3.593567 -8,8 0,4.406433 3.593567,8 8,8 4.406433,0 8,-3.593567 8,-8 0,-4.406433 -3.593567,-8 -8,-8 z M 2,14 v 4 h 5 v -4 z m 4.5859375,8.585938 -4,4 2.828125,2.828124 4,-4 z" /></svg>
