<?xml version="1.0" encoding="UTF-8" standalone="no"?>
<!-- Created with Inkscape (http://www.inkscape.org/) -->

<svg
   width="32"
   height="32"
   viewBox="0 0 32 32"
   version="1.1"
   id="svg1"
   xml:space="preserve"
   xmlns="http://www.w3.org/2000/svg"
   xmlns:svg="http://www.w3.org/2000/svg"><defs
     id="defs1" /><path
     id="path380"
     style="baseline-shift:baseline;display:inline;overflow:visible;opacity:1;vector-effect:none;fill:#ffffff;stroke-linejoin:round;paint-order:stroke fill markers;enable-background:accumulate;stop-color:#000000;stop-opacity:1"
     d="M 8.515625,2.9960938 C 8.3232605,2.9885559 8.1311396,2.9898976 7.9375,3.0019531 6.1466067,3.1134501 4.5788933,4.2613041 3.3476562,5.296875 2.1164194,6.3324459 1.2441406,7.3457031 1.2441406,7.3457031 l 1.5117188,1.3085938 c 0,0 0.7839363,-0.90357 1.8808594,-1.8261719 C 5.7336419,5.9055231 7.166034,5.0538588 8.0625,4.9980469 9.9013208,4.883566 12.764299,6.8099655 15.589844,8.9726562 17.002616,10.054002 18.420792,11.15824 19.818359,12 c 1.397568,0.84176 2.79091,1.465501 4.246094,1.371094 1.855277,-0.120365 3.422938,-1.384081 4.646485,-2.517578 1.223545,-1.1334994 2.080078,-2.2402347 2.080078,-2.2402348 L 29.208984,7.3867188 c 0,0 -0.768771,0.9914706 -1.857422,2 C 26.262913,10.395248 24.831487,11.316874 23.935547,11.375 23.186549,11.423593 22.093911,11.034604 20.849609,10.285156 19.605308,9.5357095 18.225691,8.4709161 16.806641,7.3847656 14.145921,5.3482334 11.401092,3.1091586 8.515625,2.9960938 Z m 0,8.0000002 c -0.1923645,-0.0075 -0.3844854,-0.0062 -0.578125,0.0059 -1.7908932,0.111497 -3.3586067,1.259351 -4.5898438,2.294922 -1.2312368,1.035571 -2.1035156,2.048828 -2.1035156,2.048828 l 1.5117188,1.308594 c 0,0 0.7839362,-0.90357 1.8808594,-1.826172 1.096923,-0.922602 2.5293151,-1.774266 3.4257812,-1.830078 1.8388208,-0.114481 4.701799,1.811918 7.527344,3.974609 0.146061,0.111796 0.291352,0.223968 0.4375,0.335938 0.427846,-0.523574 0.91333,-0.997266 1.447265,-1.41211 C 17.253196,15.72748 17.030391,15.556066 16.806641,15.384807 14.145921,13.348274 11.401092,11.1092 8.515625,10.996135 Z M 22,16 v 2.101562 C 22.323597,18.034472 22.658091,18 23,18 c 0.341909,0 0.676403,0.03447 1,0.101562 V 16 Z M 18.757812,17.34375 17.34375,18.757812 18.835938,20.25 C 19.208687,19.690641 19.690641,19.208687 20.25,18.835938 Z m 8.484376,0 L 25.75,18.835938 c 0.559359,0.372748 1.041313,0.854703 1.414062,1.414062 L 28.65625,18.757812 Z M 8.515625,18.996094 c -0.1923645,-0.0075 -0.3844854,-0.0062 -0.578125,0.0059 -1.7908932,0.111497 -3.3586067,1.259351 -4.5898438,2.294922 -1.2312368,1.035571 -2.1035156,2.048828 -2.1035156,2.048828 l 1.5117188,1.308594 c 0,0 0.7839362,-0.90357 1.8808594,-1.826172 1.096923,-0.922602 2.5293151,-1.774266 3.4257812,-1.830078 1.5013996,-0.09347 3.685518,1.172939 5.974609,2.818359 C 14.012384,23.544932 14.000001,23.272557 14,23 c 3.52e-4,-0.540418 0.04938,-1.079706 0.146484,-1.611328 -1.824804,-1.284975 -3.696699,-2.31679 -5.630859,-2.392578 z M 23,20 a 3,3 0 0 0 -3,3 3,3 0 0 0 3,3 3,3 0 0 0 3,-3 3,3 0 0 0 -3,-3 z m -7,2 v 2 h 2.101562 C 18.034472,23.676403 18,23.341909 18,23 c 0,-0.341909 0.03447,-0.676403 0.101562,-1 z m 11.898438,0 C 27.965528,22.323597 28,22.658091 28,23 c 0,0.341909 -0.03447,0.676403 -0.101562,1 H 30 v -2 z m -9.0625,3.75 -1.492188,1.492188 1.414062,1.414062 L 20.25,27.164062 C 19.690641,26.791313 19.208687,26.309359 18.835938,25.75 Z m 8.328124,0 C 26.791313,26.309359 26.309359,26.791313 25.75,27.164062 l 1.492188,1.492188 1.414062,-1.414062 z M 22,27.898438 V 30 h 2 V 27.898438 C 23.676403,27.965528 23.341909,28 23,28 22.658091,28 22.323597,27.96553 22,27.898438 Z" /></svg>
