<?xml version="1.0" encoding="UTF-8" standalone="no"?>
<!-- Created with Inkscape (http://www.inkscape.org/) -->

<svg
   width="32"
   height="32"
   viewBox="0 0 32 32"
   version="1.1"
   id="svg1"
   xml:space="preserve"
   xmlns="http://www.w3.org/2000/svg"
   xmlns:svg="http://www.w3.org/2000/svg"><defs
     id="defs1" /><path
     id="path445-2"
     style="baseline-shift:baseline;display:inline;overflow:visible;opacity:1;vector-effect:none;fill:#ffffff;stroke-linejoin:round;paint-order:stroke fill markers;enable-background:accumulate;stop-color:#000000;stop-opacity:1"
     d="m 16.935547,2.0019531 a 1.0001,1.0001 0 0 0 -0.490234,0.1660157 l -6,3.9999999 A 1.0001,1.0001 0 0 0 10,7 v 5.464844 L 4.4453125,16.167969 A 1.0001,1.0001 0 0 0 4,17 v 6 a 1.0001,1.0001 0 0 0 0.4453125,0.832031 l 6.0000005,4 a 1.0001,1.0001 0 0 0 0.04102,0.02344 1.0001,1.0001 0 0 0 0.06055,0.03516 1.0001,1.0001 0 0 0 0.04297,0.01953 1.0001,1.0001 0 0 0 0.08008,0.0332 1.0001,1.0001 0 0 0 0.07031,0.01953 1.0001,1.0001 0 0 0 0.04687,0.01367 1.0001,1.0001 0 0 0 0.08984,0.01367 1.0001,1.0001 0 0 0 0.03711,0.0059 1.0001,1.0001 0 0 0 0.267578,-0.01367 1.0001,1.0001 0 0 0 0.002,0 1.0001,1.0001 0 0 0 0.128906,-0.0332 1.0001,1.0001 0 0 0 0.0078,-0.002 1.0001,1.0001 0 0 0 0.117187,-0.04883 1.0001,1.0001 0 0 0 0.002,-0.002 1.0001,1.0001 0 0 0 0.002,0 1.0001,1.0001 0 0 0 0.113282,-0.06445 l 5.445312,-3.630859 5.445313,3.630859 a 1.0001,1.0001 0 0 0 0.04102,0.02344 1.0001,1.0001 0 0 0 0.06055,0.03516 1.0001,1.0001 0 0 0 0.04297,0.01953 1.0001,1.0001 0 0 0 0.08008,0.0332 1.0001,1.0001 0 0 0 0.07031,0.01953 1.0001,1.0001 0 0 0 0.04687,0.01367 1.0001,1.0001 0 0 0 0.08984,0.01367 1.0001,1.0001 0 0 0 0.03711,0.0059 1.0001,1.0001 0 0 0 0.267578,-0.01367 1.0001,1.0001 0 0 0 0.002,0 1.0001,1.0001 0 0 0 0.128906,-0.0332 1.0001,1.0001 0 0 0 0.0078,-0.002 1.0001,1.0001 0 0 0 0.117187,-0.04883 1.0001,1.0001 0 0 0 0.002,-0.002 1.0001,1.0001 0 0 0 0.002,0 1.0001,1.0001 0 0 0 0.113282,-0.06445 l 6,-4 A 1.0001,1.0001 0 0 0 30.000256,22.9999 v -6 a 1.0001,1.0001 0 0 0 -0.0098,-0.134765 1.0001,1.0001 0 0 0 -0.02734,-0.13086 1.0001,1.0001 0 0 0 -0.02344,-0.07031 1.0001,1.0001 0 0 0 -0.02734,-0.07031 1.0001,1.0001 0 0 0 0,-0.002 1.0001,1.0001 0 0 0 -0.05469,-0.105469 1.0001,1.0001 0 0 0 -0.0059,-0.0078 1.0001,1.0001 0 0 0 -0.05469,-0.08008 1.0001,1.0001 0 0 0 -0.01563,-0.02148 1.0001,1.0001 0 0 0 -0.002,-0.0039 1.0001,1.0001 0 0 0 -0.08203,-0.08789 1.0001,1.0001 0 0 0 -0.0078,-0.0078 1.0001,1.0001 0 0 0 -0.002,-0.002 1.0001,1.0001 0 0 0 -0.08984,-0.07422 1.0001,1.0001 0 0 0 -0.01172,-0.0098 1.0001,1.0001 0 0 0 -0.0059,-0.0039 1.0001,1.0001 0 0 0 -0.02539,-0.01953 L 24,12.464844 V 7 A 1.0001,1.0001 0 0 0 23.9902,6.8652344 1.0001,1.0001 0 0 0 23.93942,6.6640625 1.0001,1.0001 0 0 0 23.91208,6.5917969 1.0001,1.0001 0 0 0 23.85739,6.4863281 a 1.0001,1.0001 0 0 0 -0.0059,-0.00781 1.0001,1.0001 0 0 0 -0.07031,-0.1015625 1.0001,1.0001 0 0 0 -0.002,-0.00391 1.0001,1.0001 0 0 0 -0.08984,-0.095703 1.0001,1.0001 0 0 0 -0.002,-0.00195 1.0001,1.0001 0 0 0 -0.101562,-0.083984 1.0001,1.0001 0 0 0 -0.0059,-0.00391 1.0001,1.0001 0 0 0 -0.02539,-0.019531 l -6,-3.9999999 A 1.0001,1.0001 0 0 0 16.935347,2.0019532 Z M 16.999997,4.2011719 21.197263,7 16.999997,9.7988281 12.802731,7 Z m -5,4.6679687 4,2.6660154 v 3.597657 l -4,-2.667969 z m -1,5.3320314 L 15.197263,17 10.999997,19.798828 6.8027314,17 Z m 12,0 L 27.197263,17 22.999997,19.798828 18.802731,17 Z m -17,4.667969 4,2.666015 v 3.597657 l -4,-2.667969 z m 12,0 4,2.666015 v 3.597657 l -4,-2.667969 z" /></svg>
