<?xml version="1.0" encoding="UTF-8" standalone="no"?>
<!-- Created with Inkscape (http://www.inkscape.org/) -->

<svg
   width="32"
   height="32"
   viewBox="0 0 32 32"
   version="1.1"
   id="svg1"
   xml:space="preserve"
   xmlns="http://www.w3.org/2000/svg"
   xmlns:svg="http://www.w3.org/2000/svg"><defs
     id="defs1" /><path
     id="path445"
     style="baseline-shift:baseline;display:inline;overflow:visible;opacity:1;vector-effect:none;fill:#ffffff;stroke-linejoin:round;paint-order:stroke fill markers;enable-background:accumulate;stop-color:#000000;stop-opacity:1"
     d="M 9,2 C 6.2472972,2 4,4.2472972 4,7 v 18 c 0,2.752703 2.2472972,5 5,5 h 14 c 2.752703,0 5,-2.247297 5,-5 V 11.619141 L 19.449219,2 Z m 0,2 h 9 v 7.798828 l -2.445312,-1.630859 a 1.0001,1.0001 0 0 0 -0.619141,-0.166016 1.0001,1.0001 0 0 0 -0.490235,0.166016 l -5.9999995,4 A 1.0001,1.0001 0 0 0 8,15 v 6 a 1.0001,1.0001 0 0 0 0.4453125,0.832031 l 5.9999995,4 a 1.0001,1.0001 0 0 0 0.04102,0.02344 1.0001,1.0001 0 0 0 0.06055,0.03516 1.0001,1.0001 0 0 0 0.04297,0.01953 1.0001,1.0001 0 0 0 0.08008,0.0332 1.0001,1.0001 0 0 0 0.0918,0.02539 1.0001,1.0001 0 0 0 0.01953,0.0059 1.0001,1.0001 0 0 0 0.09961,0.01563 1.0001,1.0001 0 0 0 0.0332,0.0059 1.0001,1.0001 0 0 0 0.267579,-0.01367 1.0001,1.0001 0 0 0 0.002,0 1.0001,1.0001 0 0 0 0.128906,-0.0332 1.0001,1.0001 0 0 0 0.0078,-0.002 1.0001,1.0001 0 0 0 0.117188,-0.04883 1.0001,1.0001 0 0 0 0.002,-0.002 1.0001,1.0001 0 0 0 0.002,0 1.0001,1.0001 0 0 0 0.113282,-0.06445 l 6,-4 A 1.0001,1.0001 0 0 0 22,21 v -6 a 1.0001,1.0001 0 0 0 -0.0098,-0.134766 1.0001,1.0001 0 0 0 -0.02734,-0.130859 1.0001,1.0001 0 0 0 -0.02344,-0.07031 1.0001,1.0001 0 0 0 -0.02734,-0.07031 1.0001,1.0001 0 0 0 0,-0.002 1.0001,1.0001 0 0 0 -0.05469,-0.105469 1.0001,1.0001 0 0 0 -0.0059,-0.0078 1.0001,1.0001 0 0 0 -0.05469,-0.08008 1.0001,1.0001 0 0 0 -0.01563,-0.02149 1.0001,1.0001 0 0 0 -0.002,-0.0039 1.0001,1.0001 0 0 0 -0.08203,-0.08789 1.0001,1.0001 0 0 0 -0.0078,-0.0078 1.0001,1.0001 0 0 0 -0.002,-0.002 1.0001,1.0001 0 0 0 -0.08984,-0.07422 1.0001,1.0001 0 0 0 -0.01172,-0.0098 1.0001,1.0001 0 0 0 -0.0059,-0.0039 1.0001,1.0001 0 0 0 -0.02539,-0.01953 L 18.302734,12 H 26 v 13 c 0,1.679297 -1.320703,3 -3,3 H 9 C 7.3207028,28 6,26.679297 6,25 V 7 C 6,5.3207028 7.3207028,4 9,4 Z M 15,12.201172 19.197266,15 15,17.798828 10.802734,15 Z m -5,4.667969 4,2.666015 v 3.597656 l -4,-2.667968 z" /></svg>
