<?xml version="1.0" encoding="UTF-8" standalone="no"?>
<svg
   width="32"
   height="32"
   version="1.1"
   xml:space="preserve"
   style="clip-rule:evenodd;fill-rule:evenodd;stroke-linecap:round;stroke-linejoin:round;stroke-miterlimit:1.5"
   id="svg1"
   sodipodi:docname="magnet.svg"
   inkscape:export-filename="..\icons\src\world.svg"
   inkscape:export-xdpi="96"
   inkscape:export-ydpi="96"
   inkscape:version="1.4.4 (dcaf3e7, 2026-05-05)"
   xmlns:inkscape="http://www.inkscape.org/namespaces/inkscape"
   xmlns:sodipodi="http://sodipodi.sourceforge.net/DTD/sodipodi-0.dtd"
   xmlns="http://www.w3.org/2000/svg"
   xmlns:svg="http://www.w3.org/2000/svg"><sodipodi:namedview
   id="namedview1"
   pagecolor="#000000"
   bordercolor="#000000"
   borderopacity="0.25"
   inkscape:showpageshadow="2"
   inkscape:pageopacity="0.0"
   inkscape:pagecheckerboard="true"
   inkscape:deskcolor="#d1d1d1"
   showgrid="true"
   inkscape:zoom="16"
   inkscape:cx="8.40625"
   inkscape:cy="14.40625"
   inkscape:window-width="1920"
   inkscape:window-height="1009"
   inkscape:window-x="-8"
   inkscape:window-y="-8"
   inkscape:window-maximized="1"
   inkscape:current-layer="svg1"><inkscape:grid
     id="grid1"
     units="px"
     originx="0"
     originy="0"
     spacingx="1"
     spacingy="1"
     empcolor="#0099e5"
     empopacity="0.30196078"
     color="#0099e5"
     opacity="0.14901961"
     empspacing="2"
     enabled="true"
     visible="true" /><inkscape:page
     x="0"
     y="0"
     width="32"
     height="32"
     id="page2"
     margin="0"
     bleed="0" /></sodipodi:namedview><defs
   id="defs1" />
    
<path
   id="path225"
   style="baseline-shift:baseline;clip-rule:nonzero;display:inline;overflow:visible;opacity:1;vector-effect:none;fill:#fefffe;fill-rule:nonzero;stroke-linecap:butt;paint-order:stroke fill markers;enable-background:accumulate;stop-color:#000000;stop-opacity:1"
   d="M 16,2 C 8.2798581,2 2,8.2798581 2,16 2,23.720142 8.2798581,30 16,30 23.720142,30 30,23.720142 30,16 30,8.2798581 23.720142,2 16,2 Z m 0,2 c 0.844599,0 1.668077,0.086851 2.462891,0.2519531 0.7296,1.6904736 1.302408,3.3747745 1.71875,5.0566407 C 18.788139,9.1100864 17.394493,9.0117188 16,9.0117188 c -1.394493,0 -2.788139,0.098368 -4.181641,0.296875 0.416342,-1.6818661 0.98915,-3.3661671 1.71875,-5.0566407 C 14.331923,4.0868506 15.155401,4 16,4 Z M 11.054688,5.0585938 C 10.476992,6.5990209 10.022122,8.1432097 9.6894531,9.6894531 8.1431714,10.022182 6.5990076,10.477012 5.0585938,11.054688 6.2584433,8.396961 8.3969636,6.258448 11.054688,5.0585938 Z m 9.890624,0 C 23.603037,6.258448 25.741557,8.3969609 26.941406,11.054688 25.400992,10.477012 23.856828,10.022182 22.310547,9.6894531 21.977878,8.1432097 21.523008,6.5990209 20.945312,5.0585938 Z M 16,10.988281 c 1.538298,0 3.077034,0.130981 4.617188,0.394531 0.5271,3.080306 0.5271,6.154071 0,9.234376 -3.080305,0.5271 -6.15407,0.5271 -9.234376,0 -0.527099,-3.080305 -0.527099,-6.15407 0,-9.234376 C 12.922966,11.119263 14.461702,10.988281 16,10.988281 Z m -6.6894531,0.828125 c -0.3968957,2.786931 -0.3968957,5.580257 0,8.367188 C 7.6285705,19.767241 5.9428911,19.192936 4.2519531,18.462891 4.0868414,17.668056 4,16.844623 4,16 c 0,-0.844623 0.086841,-1.668056 0.2519531,-2.462891 1.690938,-0.730045 3.3766174,-1.30435 5.0585938,-1.720703 z m 13.3789061,0 c 1.681976,0.416353 3.367656,0.990658 5.058594,1.720703 C 27.913159,14.331944 28,15.155377 28,16 c 0,0.844623 -0.08684,1.668056 -0.251953,2.462891 -1.690938,0.730045 -3.376618,1.30435 -5.058594,1.720703 0.396896,-2.786931 0.396896,-5.580257 0,-8.367188 z M 5.0585938,20.945312 c 1.5404164,0.577697 3.0845777,1.032567 4.6308593,1.365235 0.3326679,1.546281 0.7875379,3.090443 1.3652349,4.630859 -2.6577106,-1.19985 -4.7962436,-3.338383 -5.9960942,-5.996094 z m 21.8828122,0 c -1.19985,2.657711 -3.338383,4.796244 -5.996094,5.996094 0.577697,-1.540416 1.032567,-3.084578 1.365235,-4.630859 1.546281,-0.332668 3.090443,-0.787538 4.630859,-1.365235 z m -15.125,1.744141 c 2.786931,0.396896 5.580257,0.396896 8.367188,0 -0.416353,1.681976 -0.990658,3.367656 -1.720703,5.058594 C 17.668056,27.913159 16.844623,28 16,28 c -0.844623,0 -1.668056,-0.08684 -2.462891,-0.251953 -0.730045,-1.690938 -1.30435,-3.376618 -1.720703,-5.058594 z" /></svg>
