<?xml version="1.0" encoding="UTF-8" standalone="no"?>
<!-- Created with Inkscape (http://www.inkscape.org/) -->

<svg
   width="32"
   height="32"
   viewBox="0 0 32 32"
   version="1.1"
   id="svg1"
   xml:space="preserve"
   xmlns="http://www.w3.org/2000/svg"
   xmlns:svg="http://www.w3.org/2000/svg"><defs
     id="defs1" /><path
     id="path477"
     style="opacity:1;fill:#ffffff;fill-opacity:1;stroke:none;stroke-width:8;stroke-linecap:butt;stroke-linejoin:round;stroke-dasharray:none;stroke-opacity:1;paint-order:stroke fill markers"
     d="M 8,2 C 9.7070313,3.5175781 11.414063,5.0351563 13.121094,6.5527344 9.0779512,9.3052147 5.6399698,13.51063 5.0835881,18.507168 c -0.3760808,2.651206 0.3267721,5.53857 2.3294401,7.405259 2.7816658,2.634057 6.6986338,3.565974 10.4030928,3.953243 0.614795,0.0606 2.444414,0.170979 0.871966,0.0036 -2.556514,-0.357124 -5.200554,-1.843134 -6.000227,-4.441141 -0.647873,-1.872086 -0.441088,-4.015137 0.698529,-5.657205 1.805782,-2.757552 4.494941,-4.791613 7.240564,-6.546312 C 22.417969,14.816406 24.208984,16.408203 26,18 26,12.666667 26,7.3333333 26,2 20,2 14,2 8,2 Z m 11.478516,27.964844 z" /></svg>
