<?xml version="1.0" encoding="UTF-8" standalone="no"?>
<!-- Created with Inkscape (http://www.inkscape.org/) -->

<svg
   width="32"
   height="32"
   viewBox="0 0 32 32"
   version="1.1"
   id="svg1"
   xml:space="preserve"
   xmlns="http://www.w3.org/2000/svg"
   xmlns:svg="http://www.w3.org/2000/svg"><defs
     id="defs1" /><path
     id="path478"
     style="baseline-shift:baseline;display:inline;overflow:visible;opacity:1;vector-effect:none;fill:#ffffff;fill-opacity:1;paint-order:stroke fill markers;enable-background:accumulate;stop-color:#000000;stop-opacity:1"
     d="M 16.035156,5.625 C 14.083162,5.5552859 12.137434,6.0642299 10.613281,7.1347656 9.3203845,8.042872 8.4901175,9.4802591 8.2226562,11.146484 4.2944384,11.530669 2.0130311,14.461362 1.8769531,17.455078 1.8041545,19.056648 2.2705337,20.673859 3.3105469,21.921875 4.3505601,23.169891 5.9880952,24 8,24 h 6.613281 A 8.5,8.5 0 0 1 14.5,22.615234 8.5,8.5 0 0 1 14.521484,22 H 8 C 6.5119048,22 5.5244399,21.455109 4.8457031,20.640625 4.1669663,19.826141 3.8208455,18.693352 3.8730469,17.544922 3.9774496,15.248062 5.4583333,13 9,13 h 1 V 12 C 10,10.583333 10.660871,9.5446987 11.761719,8.7714844 12.862566,7.9982701 14.416838,7.5697141 15.964844,7.625 17.512849,7.680286 19.029801,8.2060282 20.136719,9.2207031 21.243635,10.235378 22,11.733333 22,14 v 0.173828 a 8.5,8.5 0 0 1 1,-0.05859 8.5,8.5 0 0 1 6.599609,3.142578 C 29.364473,16.30008 28.851319,15.387867 28.044922,14.662109 27.058807,13.774606 25.58842,13.277056 23.833984,13.126953 23.629629,10.852278 22.823729,8.9722069 21.488281,7.7480469 19.970199,6.3564718 17.987151,5.6947141 16.035156,5.625 Z m 5.695313,9.605469 -0.460938,2.154297 c -0.358974,0.128205 -0.705729,0.281449 -1.039062,0.460937 C 19.897135,18.02519 19.590645,18.243589 19.308594,18.5 L 17.230469,17.884766 16,20.039062 17.578125,21.5 c -0.07692,0.358974 -0.115234,0.73733 -0.115234,1.134766 0,0.397436 0.03831,0.775791 0.115234,1.134765 l -1.578125,1.5 1.230469,2.152344 2.115234,-0.652344 c 0.282051,0.230769 0.583784,0.435748 0.904297,0.615235 0.320513,0.179488 0.660557,0.332732 1.019531,0.460937 L 21.730469,30 h 2.46289 l 0.53711,-2.166016 c 0.358974,-0.120257 0.699018,-0.26302 1.019531,-0.429687 0.320513,-0.166666 0.622246,-0.378356 0.904297,-0.634766 L 28.769531,27.384766 30,25.269531 28.423828,23.787109 c 0.05128,-0.345641 0.08959,-0.729266 0.115234,-1.152343 0.02564,-0.423077 7.51e-4,-0.801433 -0.07617,-1.134766 L 30,20.039062 28.769531,17.921875 26.693359,18.5 c -0.282051,-0.256411 -0.590494,-0.47481 -0.923828,-0.654297 -0.333333,-0.179488 -0.680088,-0.332732 -1.039062,-0.460937 l -0.5,-2.154297 z m 1.277343,4.615234 c 0.763847,0 1.416617,0.27256 1.955079,0.816406 0.538461,0.543846 0.80664,1.197092 0.80664,1.960938 0,0.763847 -0.27256,1.414663 -0.816406,1.953125 -0.543846,0.538461 -1.197092,0.808594 -1.960937,0.808594 -0.763847,0 -1.414664,-0.272561 -1.953126,-0.816407 -0.538461,-0.543846 -0.808593,-1.197091 -0.808593,-1.960937 0,-0.763847 0.27256,-1.414663 0.816406,-1.953125 0.543846,-0.538461 1.197092,-0.808594 1.960937,-0.808594 z" /></svg>
