<?xml version="1.0" encoding="UTF-8" standalone="no"?>
<!-- Created with Inkscape (http://www.inkscape.org/) -->

<svg
   width="32"
   height="32"
   viewBox="0 0 32 32"
   version="1.1"
   id="svg1"
   xml:space="preserve"
   xmlns="http://www.w3.org/2000/svg"
   xmlns:svg="http://www.w3.org/2000/svg"><defs
     id="defs1" /><path
     id="rect518"
     style="opacity:1;fill:#ffffff;fill-opacity:1;stroke:none;stroke-width:2;stroke-linecap:butt;stroke-linejoin:miter;stroke-dasharray:none;stroke-opacity:1;paint-order:stroke fill markers"
     d="M 4,2 C 2.892,2 2,2.892 2,4 v 24 c 0,1.108 0.892,2 2,2 h 24 c 1.108,0 2,-0.892 2,-2 V 4 C 30,2.892 29.108,2 28,2 Z m 2,2 h 20 c 1.108,0 2,0.892 2,2 v 20 c 0,1.108 -0.892,2 -2,2 H 6 C 4.892,28 4,27.108 4,26 V 6 C 4,4.892 4.892,4 6,4 Z m 5,2 a 5,5 0 0 0 -5,5 5,5 0 0 0 5,5 5,5 0 0 0 5,-5 5,5 0 0 0 -5,-5 z m 7.535156,8 -6.927734,12 h 13.857422 z" /></svg>
