<?xml version="1.0" encoding="UTF-8" standalone="no"?>
<!-- Created with Inkscape (http://www.inkscape.org/) -->

<svg
   width="32"
   height="32"
   viewBox="0 0 32 32"
   version="1.1"
   id="svg1"
   xml:space="preserve"
   xmlns="http://www.w3.org/2000/svg"
   xmlns:svg="http://www.w3.org/2000/svg"><defs
     id="defs1" /><path
     id="path520"
     style="baseline-shift:baseline;display:inline;overflow:visible;opacity:1;vector-effect:none;fill:#ffffff;paint-order:stroke fill markers;enable-background:accumulate;stop-color:#000000;stop-opacity:1"
     d="M 23.318359,1.9980469 C 20.642565,1.9359232 18.265634,3.4697729 16.371094,5.2207031 13.543134,7.253274 9.8240288,8.7869439 6.3534889,7.5625563 4.9721553,7.0906889 3.7434354,6.2511567 2.6777344,5.265625 2.2704661,6.0907415 1.8774508,6.9481019 2,7.8805479 1.9589544,14.35977 2.0214556,20.838706 1.99238,27.318136 c 2.674794,2.30936 6.4697905,3.300552 9.894366,2.295794 2.595013,-0.712509 4.987125,-2.093799 6.986339,-3.882706 1.723601,-1.427372 4.124426,-2.220188 6.304537,-1.423391 1.556765,0.503401 2.928551,1.441051 4.187609,2.465597 0.399875,-0.851919 0.746737,-1.735707 0.634766,-2.684634 C 30.03676,17.638568 30,4.7609739 30,4.7609739 28.066982,3.292564 25.803305,2.0339397 23.318359,1.9980469 Z M 23.1875,3.9941406 C 24.943327,3.9767094 26.580021,4.779928 28,5.7460938 v 7.6523442 c -2.408855,-1.444473 -5.523056,-1.938896 -8.105532,-0.640685 -2.141483,0.932256 -3.613803,2.868709 -5.742828,3.824789 -2.740137,1.527083 -6.2737428,2.020187 -9.0920033,0.413167 C 4.2878258,16.717354 3.7995465,16.221197 4,15.386137 V 8.6835938 c 3.0459712,1.7643162 6.891239,1.6560952 10.027309,0.1758107 1.839567,-0.7905276 3.49875,-1.92582 4.996319,-3.2417274 1.203091,-0.9034992 2.627567,-1.6205707 4.163872,-1.6235365 z m 0,10.0000004 c 1.755827,-0.01743 3.392521,0.785788 4.8125,1.751953 v 7.652344 c -2.408855,-1.444473 -5.523056,-1.938896 -8.105532,-0.640685 -2.141483,0.932256 -3.613803,2.868709 -5.742828,3.824789 -2.740137,1.527083 -6.2737428,2.020187 -9.0920033,0.413167 C 4.2878258,26.717354 3.7995465,26.221197 4,25.386137 v -6.702543 c 3.0459713,1.764316 6.891239,1.656095 10.027309,0.17581 1.839571,-0.790524 3.49875,-1.925825 4.996319,-3.241735 1.203088,-0.903495 2.627584,-1.620584 4.163872,-1.623528 z" /></svg>
