<?xml version="1.0" encoding="UTF-8" standalone="no"?>
<!-- Created with Inkscape (http://www.inkscape.org/) -->

<svg
   width="32"
   height="32"
   viewBox="0 0 32 32"
   version="1.1"
   id="svg1"
   xml:space="preserve"
   xmlns="http://www.w3.org/2000/svg"
   xmlns:svg="http://www.w3.org/2000/svg"><defs
     id="defs1" /><path
     id="path1"
     style="fill:#ffffff;stroke-width:0.025"
     d="m 16,2.0878906 c -1.924638,0 -3.733028,0.3633154 -5.425781,1.09375 C 8.8814645,3.912076 7.4084237,4.904076 6.15625,6.15625 4.9040759,7.4084233 3.9120754,8.8814645 3.1816406,10.574219 2.4512058,12.266973 2.0878906,14.075363 2.0878906,16 c 0,1.924638 0.3633152,3.733028 1.09375,5.425781 0.7304349,1.692754 1.7224354,3.165795 2.9746094,4.417969 1.2521737,1.252174 2.7252145,2.244175 4.417969,2.974609 1.692753,0.730435 3.501143,1.09375 5.425781,1.09375 0.398728,0 0.792865,-0.01553 1.181641,-0.04687 A 9,9 0 0 1 15,27.125 C 12.807952,26.943824 10.840381,26.157333 9.0957031,24.765625 7.0899059,23.165625 5.7845392,21.159642 5.1816406,18.748047 5.8541044,18.655294 6.4349184,18.353895 6.921875,17.84375 7.4088317,17.333605 7.6523438,16.718841 7.6523438,16 v -1.390625 h 1.390625 l 2.2265622,3.373047 c 0.162319,0.255073 0.375912,0.452667 0.642578,0.591797 0.266667,0.13913 0.564034,0.208984 0.888672,0.208984 0.510145,0 0.939283,-0.173658 1.28711,-0.521484 0.347826,-0.347826 0.521484,-0.776964 0.521484,-1.28711 V 14.609375 H 16 c 0.394203,0 0.725521,-0.133724 0.992188,-0.400391 0.266666,-0.266666 0.398437,-0.597984 0.398437,-0.992187 v -2.78125 h 1.392578 c 0.765217,0 1.419917,-0.273431 1.964844,-0.8183595 0.544928,-0.5449273 0.816406,-1.1996265 0.816406,-1.9648437 V 6.3300781 c 1.669565,0.9739127 3.02085,2.3132305 4.052735,4.0175779 0.862856,1.425168 1.364519,2.975862 1.505859,4.652344 a 9,9 0 0 1 2.742187,2.181641 c 0.03135,-0.388776 0.04687,-0.782913 0.04687,-1.181641 0,-1.924637 -0.363315,-3.733027 -1.09375,-5.425781 C 28.087925,8.8814646 27.095924,7.4084233 25.84375,6.15625 24.591576,4.904076 23.118535,3.912076 21.425781,3.1816406 19.733028,2.451206 17.924638,2.0878906 16,2.0878906 Z m 6.503906,8.3476564 c -0.27826,0 -0.533741,0.07987 -0.765625,0.242187 -0.231884,0.162319 -0.393574,0.383849 -0.486328,0.66211 l -0.521484,1.529297 c -0.139131,0.44058 -0.07526,0.841751 0.191406,1.201171 0.0388,0.0523 0.08008,0.09985 0.123047,0.144532 A 9,9 0 0 1 23,14 a 9,9 0 0 1 0.130859,0 c 0.05662,-0.09021 0.102831,-0.187398 0.138672,-0.294922 l 0.521485,-1.53125 c 0.13913,-0.440579 0.07526,-0.839798 -0.191407,-1.199219 -0.266666,-0.35942 -0.631935,-0.539062 -1.095703,-0.539062 z M 22,16 v 2.101562 C 22.323597,18.034474 22.658091,18 23,18 c 0.341909,0 0.676403,0.03447 1,0.101562 V 16 Z M 18.757812,17.34375 17.34375,18.757812 18.835938,20.25 C 19.208687,19.690641 19.690641,19.208687 20.25,18.835938 Z m 8.484376,0 L 25.75,18.835938 c 0.559359,0.372748 1.041313,0.854703 1.414062,1.414062 L 28.65625,18.757812 Z M 23,20 a 3,3 0 0 0 -3,3 3,3 0 0 0 3,3 3,3 0 0 0 3,-3 3,3 0 0 0 -3,-3 z m -7,2 v 2 h 2.101562 C 18.034474,23.676403 18,23.341909 18,23 c 0,-0.341909 0.03447,-0.676403 0.101562,-1 z m 11.898438,0 C 27.965526,22.323597 28,22.658091 28,23 c 0,0.341909 -0.03447,0.676403 -0.101562,1 H 30 v -2 z m -13.878907,0.396484 c -0.535209,0.542002 -0.802734,1.192809 -0.802734,1.951172 0,0.765218 0.273431,1.425901 0.818359,1.982422 0.265966,0.271625 0.558511,0.478136 0.876953,0.617188 A 9,9 0 0 1 14,23 9,9 0 0 1 14.019531,22.396484 Z M 18.835938,25.75 17.34375,27.242188 18.757812,28.65625 20.25,27.164062 C 19.690641,26.791313 19.208687,26.309359 18.835938,25.75 Z m 8.328124,0 C 26.791313,26.309359 26.309359,26.791313 25.75,27.164062 l 1.492188,1.492188 1.414062,-1.414062 z M 22,27.898438 V 30 h 2 V 27.898438 C 23.676403,27.965526 23.341909,28 23,28 22.658091,28 22.323597,27.96553 22,27.898438 Z" /></svg>
