<?xml version="1.0" encoding="UTF-8" standalone="no"?>
<svg
   width="32"
   height="32"
   version="1.1"
   xml:space="preserve"
   style="clip-rule:evenodd;fill-rule:evenodd;stroke-linecap:round;stroke-linejoin:round;stroke-miterlimit:1.5"
   id="svg1"
   xmlns="http://www.w3.org/2000/svg"
   xmlns:svg="http://www.w3.org/2000/svg"><defs
   id="defs1" />
    <path
   id="path1"
   style="clip-rule:evenodd;fill:#fefffe;fill-rule:evenodd;stroke:none;stroke-width:0.999999;stroke-linecap:round;stroke-linejoin:round;stroke-miterlimit:1.5;stroke-dasharray:none"
   d="M 1.9999999,4 V 27.999999 H 8 V 22 h 4 l 0.0039,-0.0039 C 12.004024,21.438116 12.003633,20.880106 12,20.322274 11.894648,19.148721 12.376531,18.001879 13.185547,17.185555 L 12,16 H 8 v -6 h 13.999999 l 6.000002,-6 z m 13.8320311,7.025391 -2.828125,2.830078 2.214844,2.214844 c 0.230895,-0.04583 0.46794,-0.06949 0.708984,-0.06836 1.626194,-0.0016 3.252698,-0.0019 4.878906,-0.002 z m 11.312501,0 L 22.169922,16 c 1.88653,1.28e-4 3.773628,8e-5 5.660156,0 l 2.144531,-2.144531 z M 16.021484,18 C 14.901128,18 14,18.901128 14,20.021484 v 9.957031 C 14,31.098871 14.901128,32 16.021484,32 H 29.978515 C 31.098871,32 32,31.098871 32,29.978515 V 20.021484 C 32,18.901128 31.098871,18 29.978515,18 Z M 16,19.999999 h 4.000001 C 21,19.999999 21.999999,21 21.999999,22 v 2 c 0,1 -0.999999,2.000001 -1.999998,2.000001 H 18 v 1.999998 h 3.999999 V 30 H 18 c -1,0 -2,-0.999999 -2,-2.000001 V 26.000001 C 16,25 17,24 18,24 h 2.000001 V 22 H 16 Z m 8,0 h 2 C 28.000001,19.999999 30,22 30,24 v 2.000001 C 30,27.999999 28.000001,30 26,30 H 24 V 27.999999 22 Z M 26,22 v 5.999999 c 1,0 2.000001,-0.999999 2.000001,-1.999998 V 24 C 28.000001,23.000001 27,22 26,22 Z" />
</svg>
