<?xml version="1.0" encoding="UTF-8" standalone="no"?>
<svg
   width="32"
   height="32"
   version="1.1"
   xml:space="preserve"
   style="clip-rule:evenodd;fill-rule:evenodd;stroke-linecap:round;stroke-linejoin:round;stroke-miterlimit:1.5"
   id="svg1"
   xmlns="http://www.w3.org/2000/svg"
   xmlns:svg="http://www.w3.org/2000/svg"><defs
   id="defs1" />
    
<path
   id="path58"
   style="baseline-shift:baseline;clip-rule:nonzero;display:inline;overflow:visible;opacity:1;vector-effect:none;fill:#fefffe;fill-rule:nonzero;stroke-linecap:butt;paint-order:stroke fill markers;enable-background:accumulate;stop-color:#000000;stop-opacity:1"
   d="M 9,2 A 4,4 0 0 0 5,6 4,4 0 0 0 8,9.8730469 V 25 a 1.0001,1.0001 0 0 0 1,1 h 8.126953 A 4,4 0 0 0 21,29 4,4 0 0 0 25,25 4,4 0 0 0 21,21 4,4 0 0 0 17.126953,24 H 10 v -8 h 7.126953 A 4,4 0 0 0 21,19 4,4 0 0 0 25,15 4,4 0 0 0 21,11 4,4 0 0 0 17.126953,14 H 10 V 9.8730469 A 4,4 0 0 0 13,6 4,4 0 0 0 9,2 Z" /></svg>
