<?xml version="1.0" encoding="UTF-8" standalone="no"?>
<svg
   width="32"
   height="32"
   version="1.1"
   xml:space="preserve"
   style="clip-rule:evenodd;fill-rule:evenodd;stroke-linecap:round;stroke-linejoin:round;stroke-miterlimit:1.5"
   id="svg1"
   xmlns="http://www.w3.org/2000/svg"
   xmlns:svg="http://www.w3.org/2000/svg"><defs
   id="defs1" />
    
<path
   id="rect201"
   style="fill:#ffffff;fill-opacity:1;stroke:none;stroke-width:2;stroke-linecap:butt;stroke-linejoin:round;stroke-dasharray:none;stroke-opacity:1;paint-order:stroke fill markers"
   d="M 2,2 V 4 H 20 V 2 Z m 20,0 v 2 h 8 V 2 Z M 2,6 V 8 H 18 V 6 Z M 20,6 V 8 H 30 V 6 Z M 2,10 v 2 h 14.484375 v -2 z m 16,0 v 2 h 6 v -2 z m 8,0 v 2 h 4 V 10 Z M 2,14 v 2 h 6 v -2 z m 8,0 v 2 h 20 v -2 z m -8,4 v 2 h 18 v -2 z m 20,0 v 2 h 4 v -2 z m 6,0 v 2 h 2 V 18 Z M 2,22 v 2 h 8 v -2 z m 10,0 v 2 h 10 v -2 z m 12,0 v 2 h 6 V 22 Z M 2,26 v 2 h 16 v -2 z" /></svg>
