<?xml version="1.0" encoding="UTF-8" standalone="no"?>
<!-- Created with Inkscape (http://www.inkscape.org/) -->

<svg
   width="32"
   height="32"
   viewBox="0 0 32 32"
   version="1.1"
   id="svg1"
   inkscape:export-filename="emitter.svg"
   inkscape:export-xdpi="96"
   inkscape:export-ydpi="96"
   inkscape:version="1.4.4 (dcaf3e7, 2026-05-05)"
   sodipodi:docname="2d.svg"
   xmlns:inkscape="http://www.inkscape.org/namespaces/inkscape"
   xmlns:sodipodi="http://sodipodi.sourceforge.net/DTD/sodipodi-0.dtd"
   xmlns="http://www.w3.org/2000/svg"
   xmlns:svg="http://www.w3.org/2000/svg">
  <sodipodi:namedview
     id="namedview1"
     pagecolor="#000000"
     bordercolor="#000000"
     borderopacity="0.25"
     inkscape:showpageshadow="2"
     inkscape:pageopacity="0.0"
     inkscape:pagecheckerboard="true"
     inkscape:deskcolor="#d1d1d1"
     inkscape:document-units="px"
     showgrid="true"
     inkscape:zoom="22.627417"
     inkscape:cx="19.357048"
     inkscape:cy="18.804621"
     inkscape:window-width="1920"
     inkscape:window-height="1009"
     inkscape:window-x="-8"
     inkscape:window-y="-8"
     inkscape:window-maximized="1"
     inkscape:current-layer="svg1">
    <inkscape:grid
       id="grid1"
       units="px"
       originx="0"
       originy="0"
       spacingx="1"
       spacingy="1"
       empcolor="#0099e5"
       empopacity="0.30196078"
       color="#0099e5"
       opacity="0.14901961"
       empspacing="8"
       enabled="true"
       visible="true" />
  </sodipodi:namedview>
  <defs
     id="defs1">
    <rect
       x="2"
       y="10"
       width="33"
       height="28"
       id="rect4" />
  </defs>
  <path
     id="rect3"
     style="fill:#ffffff;fill-opacity:1;stroke:none;stroke-width:3;stroke-linejoin:round;stroke-dasharray:none;stroke-opacity:1;paint-order:stroke fill markers"
     d="M 16.021484 18 C 14.901128 18 14 18.901128 14 20.021484 L 14 29.978516 C 14 31.098872 14.901128 32 16.021484 32 L 29.978516 32 C 31.098872 32 32 31.098872 32 29.978516 L 32 20.021484 C 32 18.901128 31.098872 18 29.978516 18 L 16.021484 18 z M 16 20 L 20 20 C 21 20 22 21 22 22 L 22 24 C 22 25 21 26 20 26 L 18 26 L 18 28 L 22 28 L 22 30 L 18 30 C 17 30 16 29 16 28 L 16 26 C 16 25 17 24 18 24 L 20 24 L 20 22 L 16 22 L 16 20 z M 24 20 L 26 20 C 28 20 30 22 30 24 L 30 26 C 30 28 28 30 26 30 L 24 30 L 24 28 L 24 22 L 24 20 z M 26 22 L 26 28 C 27 28 28 27 28 26 L 28 24 C 28 23 27 22 26 22 z " />
</svg>
