<?xml version="1.0" encoding="UTF-8" standalone="no"?>
<!-- Created with Inkscape (http://www.inkscape.org/) -->

<svg
   width="32"
   height="32"
   viewBox="0 0 32 32"
   version="1.1"
   id="svg1"
   inkscape:export-filename="emitter.svg"
   inkscape:export-xdpi="96"
   inkscape:export-ydpi="96"
   inkscape:version="1.4.4 (dcaf3e7, 2026-05-05)"
   sodipodi:docname="box.svg"
   xmlns:inkscape="http://www.inkscape.org/namespaces/inkscape"
   xmlns:sodipodi="http://sodipodi.sourceforge.net/DTD/sodipodi-0.dtd"
   xmlns="http://www.w3.org/2000/svg"
   xmlns:svg="http://www.w3.org/2000/svg">
  <sodipodi:namedview
     id="namedview1"
     pagecolor="#000000"
     bordercolor="#000000"
     borderopacity="0.25"
     inkscape:showpageshadow="2"
     inkscape:pageopacity="0.0"
     inkscape:pagecheckerboard="true"
     inkscape:deskcolor="#d1d1d1"
     inkscape:document-units="px"
     showgrid="true"
     inkscape:zoom="22.627417"
     inkscape:cx="15.998291"
     inkscape:cy="22.07499"
     inkscape:window-width="1920"
     inkscape:window-height="1009"
     inkscape:window-x="-8"
     inkscape:window-y="-8"
     inkscape:window-maximized="1"
     inkscape:current-layer="svg1">
    <inkscape:grid
       id="grid1"
       units="px"
       originx="0"
       originy="0"
       spacingx="1"
       spacingy="1"
       empcolor="#0099e5"
       empopacity="0.30196078"
       color="#0099e5"
       opacity="0.14901961"
       empspacing="8"
       enabled="true"
       visible="true" />
  </sodipodi:namedview>
  <defs
     id="defs1">
    <rect
       x="2"
       y="10"
       width="33"
       height="28"
       id="rect4" />
  </defs>
  <path
     id="path445"
     style="baseline-shift:baseline;display:inline;overflow:visible;vector-effect:none;fill:#ffffff;stroke-linejoin:round;paint-order:stroke fill markers;enable-background:accumulate;stop-color:#000000"
     d="m 22.935547,15.799805 a 1.0001,1.0001 0 0 0 -0.490235,0.166016 l -6,3.999999 A 1.0001,1.0001 0 0 0 16,20.797851 v 6 a 1.0001,1.0001 0 0 0 0.445312,0.832031 l 6,4 a 1.0001,1.0001 0 0 0 0.04102,0.02344 1.0001,1.0001 0 0 0 0.06055,0.03516 1.0001,1.0001 0 0 0 0.04297,0.01953 1.0001,1.0001 0 0 0 0.08008,0.0332 1.0001,1.0001 0 0 0 0.0918,0.02539 1.0001,1.0001 0 0 0 0.01953,0.0059 1.0001,1.0001 0 0 0 0.09961,0.01563 1.0001,1.0001 0 0 0 0.0332,0.0059 1.0001,1.0001 0 0 0 0.267579,-0.01367 1.0001,1.0001 0 0 0 0.002,0 1.0001,1.0001 0 0 0 0.128906,-0.0332 1.0001,1.0001 0 0 0 0.0078,-0.002 1.0001,1.0001 0 0 0 0.117188,-0.04883 1.0001,1.0001 0 0 0 0.002,-0.002 1.0001,1.0001 0 0 0 0.002,0 1.0001,1.0001 0 0 0 0.113282,-0.06445 l 6,-4 A 1.0001,1.0001 0 0 0 30,26.797851 v -6 a 1.0001,1.0001 0 0 0 -0.0098,-0.134766 1.0001,1.0001 0 0 0 -0.02734,-0.130859 1.0001,1.0001 0 0 0 -0.02344,-0.07031 1.0001,1.0001 0 0 0 -0.02734,-0.07031 1.0001,1.0001 0 0 0 0,-0.002 1.0001,1.0001 0 0 0 -0.05469,-0.105469 1.0001,1.0001 0 0 0 -0.0059,-0.0078 1.0001,1.0001 0 0 0 -0.05469,-0.08008 1.0001,1.0001 0 0 0 -0.01563,-0.02149 1.0001,1.0001 0 0 0 -0.002,-0.0039 1.0001,1.0001 0 0 0 -0.08203,-0.08789 1.0001,1.0001 0 0 0 -0.0078,-0.0078 1.0001,1.0001 0 0 0 -0.002,-0.002 1.0001,1.0001 0 0 0 -0.08984,-0.07422 1.0001,1.0001 0 0 0 -0.01172,-0.0098 1.0001,1.0001 0 0 0 -0.0059,-0.0039 1.0001,1.0001 0 0 0 -0.02539,-0.01953 l -6,-4 A 1.0001,1.0001 0 0 0 22.935547,15.799805 Z M 23,17.999023 27.197266,20.797851 23,23.596679 18.802734,20.797851 Z m -5,4.667969 4,2.666015 v 3.597657 l -4,-2.667969 z" />
</svg>
