<?xml version="1.0" encoding="UTF-8" standalone="no"?>
<!-- Created with Inkscape (http://www.inkscape.org/) -->

<svg
   width="32"
   height="32"
   viewBox="0 0 32 32"
   version="1.1"
   id="svg1"
   inkscape:export-filename="emitter.svg"
   inkscape:export-xdpi="96"
   inkscape:export-ydpi="96"
   inkscape:version="1.4.4 (dcaf3e7, 2026-05-05)"
   sodipodi:docname="light.svg"
   xmlns:inkscape="http://www.inkscape.org/namespaces/inkscape"
   xmlns:sodipodi="http://sodipodi.sourceforge.net/DTD/sodipodi-0.dtd"
   xmlns="http://www.w3.org/2000/svg"
   xmlns:svg="http://www.w3.org/2000/svg">
  <sodipodi:namedview
     id="namedview1"
     pagecolor="#000000"
     bordercolor="#000000"
     borderopacity="0.25"
     inkscape:showpageshadow="2"
     inkscape:pageopacity="0.0"
     inkscape:pagecheckerboard="true"
     inkscape:deskcolor="#d1d1d1"
     inkscape:document-units="px"
     showgrid="true"
     inkscape:zoom="22.627417"
     inkscape:cx="15.998291"
     inkscape:cy="22.07499"
     inkscape:window-width="1920"
     inkscape:window-height="1009"
     inkscape:window-x="-8"
     inkscape:window-y="-8"
     inkscape:window-maximized="1"
     inkscape:current-layer="svg1">
    <inkscape:grid
       id="grid1"
       units="px"
       originx="0"
       originy="0"
       spacingx="1"
       spacingy="1"
       empcolor="#0099e5"
       empopacity="0.30196078"
       color="#0099e5"
       opacity="0.14901961"
       empspacing="8"
       enabled="true"
       visible="true" />
  </sodipodi:namedview>
  <defs
     id="defs1">
    <rect
       x="2"
       y="10"
       width="33"
       height="28"
       id="rect4" />
  </defs>
  <path
     id="rect373"
     style="fill:#ffffff;stroke-width:4;stroke-linejoin:round;paint-order:stroke fill markers"
     d="m 24,18 v 2.101562 C 24.323597,20.034474 24.658091,20 25,20 c 0.341909,0 0.676403,0.03447 1,0.101562 V 18 Z M 20.757812,19.34375 19.34375,20.757812 20.835938,22.25 C 21.208687,21.690641 21.690641,21.208687 22.25,20.835938 Z m 8.484376,0 L 27.75,20.835938 c 0.559359,0.372749 1.041313,0.854703 1.414062,1.414062 L 30.65625,20.757812 Z M 25,22 a 3,3 0 0 0 -3,3 3,3 0 0 0 3,3 3,3 0 0 0 3,-3 3,3 0 0 0 -3,-3 z m -7,2 v 2 h 2.101562 C 20.034474,25.676403 20,25.341909 20,25 c 0,-0.341909 0.03447,-0.676403 0.101562,-1 z m 11.898438,0 C 29.965526,24.323597 30,24.658091 30,25 c 0,0.341909 -0.03447,0.676403 -0.101562,1 H 32 v -2 z m -9.0625,3.75 -1.492188,1.492188 1.414062,1.414062 L 22.25,29.164062 C 21.690641,28.791313 21.208687,28.309359 20.835938,27.75 Z m 8.328124,0 C 28.791313,28.309359 28.309359,28.791313 27.75,29.164062 l 1.492188,1.492188 1.414062,-1.414062 z M 24,29.898438 V 32 h 2 V 29.898438 C 25.676403,29.965526 25.341909,30 25,30 24.658091,30 24.323597,29.96553 24,29.898438 Z" />
</svg>
