<?xml version="1.0" encoding="UTF-8" standalone="no"?>
<svg
   width="32"
   height="32"
   version="1.1"
   xml:space="preserve"
   style="clip-rule:evenodd;fill-rule:evenodd;stroke-linecap:round;stroke-linejoin:round;stroke-miterlimit:1.5"
   id="svg1"
   sodipodi:docname="magnet.svg"
   inkscape:export-filename="..\icons\raw.svg"
   inkscape:export-xdpi="96"
   inkscape:export-ydpi="96"
   inkscape:version="1.4.4 (dcaf3e7, 2026-05-05)"
   xmlns:inkscape="http://www.inkscape.org/namespaces/inkscape"
   xmlns:sodipodi="http://sodipodi.sourceforge.net/DTD/sodipodi-0.dtd"
   xmlns="http://www.w3.org/2000/svg"
   xmlns:svg="http://www.w3.org/2000/svg"><sodipodi:namedview
   id="namedview1"
   pagecolor="#000000"
   bordercolor="#000000"
   borderopacity="0.25"
   inkscape:showpageshadow="2"
   inkscape:pageopacity="0.0"
   inkscape:pagecheckerboard="true"
   inkscape:deskcolor="#d1d1d1"
   showgrid="true"
   inkscape:zoom="16"
   inkscape:cx="8.40625"
   inkscape:cy="14.40625"
   inkscape:window-width="1920"
   inkscape:window-height="1009"
   inkscape:window-x="-8"
   inkscape:window-y="-8"
   inkscape:window-maximized="1"
   inkscape:current-layer="svg1"><inkscape:grid
     id="grid1"
     units="px"
     originx="0"
     originy="0"
     spacingx="1"
     spacingy="1"
     empcolor="#0099e5"
     empopacity="0.30196078"
     color="#0099e5"
     opacity="0.14901961"
     empspacing="2"
     enabled="true"
     visible="true" /></sodipodi:namedview><defs
   id="defs1"><rect
     x="2"
     y="10"
     width="33"
     height="28"
     id="rect4" /></defs>
    
<path
   id="path106"
   style="clip-rule:nonzero;fill-rule:nonzero;stroke-linecap:butt;stroke-linejoin:round;stroke-miterlimit:1.5;opacity:1;baseline-shift:baseline;display:inline;overflow:visible;vector-effect:none;fill:#fefffe;paint-order:stroke fill markers;enable-background:accumulate;stop-color:#000000;stop-opacity:1"
   d="M 14 5.5 L 14 8.5 C 18.333333 8.5 20.579168 9.2332451 21.775391 10.521484 C 22.667701 11.482435 23.187544 13.014854 23.394531 15.339844 L 21.25 15.339844 A 0.50005 0.50005 0 0 0 20.816406 16.089844 L 24.566406 22.578125 A 0.50005 0.50005 0 0 0 25.433594 22.578125 L 29.183594 16.089844 A 0.50005 0.50005 0 0 0 28.75 15.339844 L 26.414062 15.339844 C 26.204565 12.480999 25.562778 10.188851 23.974609 8.4785156 C 21.920832 6.2667553 18.666667 5.5 14 5.5 z M 7 9.171875 A 0.50005 0.50005 0 0 0 6.5664062 9.421875 L 2.8164062 15.910156 A 0.50005 0.50005 0 0 0 3.25 16.660156 L 5.5859375 16.660156 C 5.7954347 19.519001 6.4372221 21.811149 8.0253906 23.521484 C 10.079168 25.733245 13.333333 26.5 18 26.5 L 18 23.5 C 13.666667 23.5 11.420832 22.766755 10.224609 21.478516 C 9.332299 20.517565 8.8124556 18.985146 8.6054688 16.660156 L 10.75 16.660156 A 0.50005 0.50005 0 0 0 11.183594 15.910156 L 7.4335938 9.421875 A 0.50005 0.50005 0 0 0 7 9.171875 z " /></svg>
