<?xml version="1.0" encoding="UTF-8" standalone="no"?>
<!DOCTYPE svg PUBLIC "-//W3C//DTD SVG 1.1//EN" "http://www.w3.org/Graphics/SVG/1.1/DTD/svg11.dtd">
<svg width="100%" height="100%" viewBox="0 0 256 256" version="1.1" xmlns="http://www.w3.org/2000/svg" xmlns:xlink="http://www.w3.org/1999/xlink" xml:space="preserve" xmlns:serif="http://www.serif.com/" style="fill-rule:evenodd;clip-rule:evenodd;stroke-linejoin:round;stroke-miterlimit:2;">
    <g transform="matrix(0.225265,0,0,0.225265,8.2088,242.222)">
        <path d="M880,-446.103L880,-240C880,-218 872.167,-199.167 856.5,-183.5C840.833,-167.833 822,-160 800,-160L160,-160C138,-160 119.167,-167.833 103.5,-183.5C87.833,-199.167 80,-218 80,-240L80,-720C80,-742 87.833,-760.833 103.5,-776.5C119.167,-792.167 138,-800 160,-800L400,-800L480,-720L604.912,-720C599.872,-701.08 597.349,-681.08 597.349,-660C597.349,-653.222 597.61,-646.555 598.132,-640L447,-640L367,-720L160,-720L160,-240L800,-240L800,-438.132C806.555,-437.61 813.222,-437.349 820,-437.349C841.089,-437.349 861.083,-440.305 880,-446.103Z" style="fill:white;"/>
    </g>
    <g transform="matrix(0.225265,0,0,0.225265,53.2617,251.233)">
        <path d="M772,-604L900,-476L844,-420L716,-548C702,-540 687,-533.333 671,-528C655,-522.667 638,-520 620,-520C570,-520 527.5,-537.5 492.5,-572.5C457.5,-607.5 440,-650 440,-700C440,-750 457.5,-792.5 492.5,-827.5C527.5,-862.5 570,-880 620,-880C670,-880 712.5,-862.5 747.5,-827.5C782.5,-792.5 800,-750 800,-700C800,-682 797.333,-665 792,-649C786.667,-633 780,-618 772,-604ZM620,-600C648,-600 671.667,-609.667 691,-629C710.333,-648.333 720,-672 720,-700C720,-728 710.333,-751.667 691,-771C671.667,-790.333 648,-800 620,-800C592,-800 568.333,-790.333 549,-771C529.667,-751.667 520,-728 520,-700C520,-672 529.667,-648.333 549,-629C568.333,-609.667 592,-600 620,-600Z" style="fill:white;fill-rule:nonzero;"/>
    </g>
</svg>
