<?xml version="1.0" encoding="UTF-8" standalone="no"?>
<svg
   width="32"
   height="32"
   version="1.1"
   xml:space="preserve"
   style="clip-rule:evenodd;fill-rule:evenodd;stroke-linecap:round;stroke-linejoin:round;stroke-miterlimit:1.5"
   id="svg1"
   xmlns="http://www.w3.org/2000/svg"
   xmlns:svg="http://www.w3.org/2000/svg"><defs
   id="defs1" />
    
<path
   d="m 10.998577,1.9999999 c -1.648038,0 -2.9995258,1.3590064 -2.9995258,2.998955 V 6.9982581 7.9979097 H 6.9992093 4.999526 C 3.3592653,7.9979097 2,9.3491188 2,10.996865 c 0,1.647745 1.3592653,2.998954 2.999526,2.998954 h 1.9996833 c 0.8523061,0 1.5326181,-0.427331 2.0699928,-1.003551 l 9.9242139,9.926221 c -0.581589,0.537012 -1.011562,1.216977 -1.011562,2.073497 v 1.999305 c 0,1.639927 1.351466,2.998954 2.999526,2.998954 1.648059,0 2.999526,-1.359007 2.999526,-2.998954 v -1.999305 -0.999651 h 0.999841 1.999685 c 1.640261,0 2.999526,-1.351209 2.999526,-2.998953 0,-1.647747 -1.359265,-2.998957 -2.999526,-2.998957 h -1.999685 c -0.852304,0 -1.532596,0.427352 -2.069992,1.003552 L 12.986544,9.0717555 C 13.568151,8.5347426 13.998103,7.8547996 13.998103,6.9982581 V 4.9989549 c 0,-1.6399486 -1.351466,-2.998955 -2.999526,-2.998955 z"
   id="path1"
   style="fill:#ffffff;stroke-width:1.125" /></svg>
