<?xml version="1.0" encoding="UTF-8" standalone="no"?>
<svg
   width="32"
   height="32"
   version="1.1"
   xml:space="preserve"
   style="clip-rule:evenodd;fill-rule:evenodd;stroke-linecap:round;stroke-linejoin:round;stroke-miterlimit:1.5"
   id="svg1"
   xmlns="http://www.w3.org/2000/svg"
   xmlns:svg="http://www.w3.org/2000/svg"><defs
   id="defs1" />
    
<path
   id="rect19"
   style="baseline-shift:baseline;clip-rule:nonzero;display:inline;overflow:visible;opacity:1;vector-effect:none;fill:#fefffe;fill-rule:nonzero;stroke-linecap:butt;stroke-linejoin:miter;paint-order:stroke fill markers;enable-background:accumulate;stop-color:#000000;stop-opacity:1"
   d="M 9,2 A 1.0001,1.0001 0 0 0 8,3 V 6 H 5 A 1.0001,1.0001 0 0 0 4,7 v 22 a 1.0001,1.0001 0 0 0 1,1 h 18 a 1.0001,1.0001 0 0 0 1,-1 v -3 h 3 a 1.0001,1.0001 0 0 0 1,-1 V 3 A 1.0001,1.0001 0 0 0 27,2 Z m 1,2 H 26 V 24 H 23 10 V 7 Z M 6,8 h 2 v 17 a 1.0001,1.0001 0 0 0 1,1 h 13 v 2 H 6 Z" /></svg>
