<?xml version="1.0" encoding="UTF-8" standalone="no"?>
<svg
   width="32"
   height="32"
   version="1.1"
   xml:space="preserve"
   style="clip-rule:evenodd;fill-rule:evenodd;stroke-linecap:round;stroke-linejoin:round;stroke-miterlimit:1.5"
   id="svg1"
   xmlns="http://www.w3.org/2000/svg"
   xmlns:svg="http://www.w3.org/2000/svg"><defs
   id="defs1" />
    
<path
   id="path21"
   style="baseline-shift:baseline;clip-rule:nonzero;display:inline;overflow:visible;opacity:1;vector-effect:none;fill:#fefffe;fill-rule:nonzero;stroke-linecap:butt;stroke-linejoin:miter;paint-order:stroke fill markers;enable-background:accumulate;stop-color:#000000;stop-opacity:1"
   d="m 15.9375,2.0019531 a 1.0001,1.0001 0 0 0 -0.357422,0.089844 l -12.9999999,6 A 1.0001,1.0001 0 0 0 2,9 1.0001,1.0001 0 0 0 2,9.0507812 V 23 a 1.0001,1.0001 0 0 0 0.5800781,0.908203 l 12.9999999,6 a 1.0001,1.0001 0 0 0 0.839844,0 l 13,-6 A 1.0001,1.0001 0 0 0 30,23 V 9.0507812 A 1.0001,1.0001 0 0 0 30,9 1.0001,1.0001 0 0 0 29.419922,8.0917969 l -13,-6 A 1.0001,1.0001 0 0 0 15.9375,2.0019531 Z M 16,4.1015625 26.613281,9 16,13.898438 5.3867188,9 Z M 4,10.564453 15,15.640625 V 27.4375 L 4,22.359375 Z m 24,0 V 22.359375 L 17,27.4375 V 15.640625 Z" /></svg>
