<?xml version="1.0" encoding="UTF-8" standalone="no"?>
<svg
   width="32"
   height="32"
   version="1.1"
   xml:space="preserve"
   style="clip-rule:evenodd;fill-rule:evenodd;stroke-linecap:round;stroke-linejoin:round;stroke-miterlimit:1.5"
   id="svg1"
   xmlns="http://www.w3.org/2000/svg"
   xmlns:svg="http://www.w3.org/2000/svg"><defs
   id="defs1" />
    
<path
   style="baseline-shift:baseline;clip-rule:nonzero;display:inline;overflow:visible;opacity:1;vector-effect:none;fill:#fefffe;fill-rule:nonzero;stroke-linecap:butt;paint-order:stroke fill markers;enable-background:accumulate;stop-color:#000000;stop-opacity:1"
   d="m 21.435547,2.7597656 c 0.03791,-0.3124814 -0.02373,0.065243 -0.15625,0.4394532 -0.132524,0.3742098 -0.331306,0.8920649 -0.576172,1.5019531 -0.489731,1.2197763 -1.167339,2.8155888 -1.919922,4.5332031 -0.938942,2.142941 -1.883388,4.093864 -2.851562,6.15625 L 9.7890625,3.1054688 6.2109375,4.8945312 13.810547,20.09375 c -1.550409,3.312588 -2.116367,5.507097 -1.765625,7.197266 0.195101,0.940158 0.75233,1.751635 1.369141,2.18164 0.308405,0.215003 0.611903,0.344158 0.871093,0.419922 0.259191,0.07576 0.271907,0.118866 0.761719,0.107422 a 2.0002,2.0002 0 0 0 1.9375,-2.248047 c -0.291903,-2.335229 -0.0074,-4.644489 0.884766,-7.03125 1.305642,-2.613663 3.076823,-6.454449 4.578125,-9.880859 0.764021,-1.743722 1.453764,-3.3657614 1.96875,-4.6484378 0.257492,-0.6413381 0.471622,-1.1975332 0.634765,-1.6582031 0.163143,-0.4606699 0.28106,-0.6797047 0.355469,-1.2929687 z"
   id="path39" /></svg>
