<?xml version="1.0" encoding="UTF-8" standalone="no"?>
<svg
   width="32"
   height="32"
   version="1.1"
   xml:space="preserve"
   style="clip-rule:evenodd;fill-rule:evenodd;stroke-linecap:round;stroke-linejoin:round;stroke-miterlimit:1.5"
   id="svg1"
   xmlns="http://www.w3.org/2000/svg"
   xmlns:svg="http://www.w3.org/2000/svg"><defs
   id="defs1" />
    
<path
   id="path7"
   style="baseline-shift:baseline;display:inline;overflow:visible;opacity:1;vector-effect:none;fill:#ffffff;enable-background:accumulate;stop-color:#000000;stop-opacity:1"
   d="m 4.7070312,3.2929688 -1.4140624,1.4140624 4,4 1.4140624,-1.4140624 z M 10,4 v 4 h 2 V 4 Z m 10.894531,0 c -1.79355,0 -3.58657,0.6822745 -4.949219,2.0449219 l -1.414062,1.4140625 1.414062,1.4140625 1.414063,-1.4140625 c 1.960995,-1.960997 5.109317,-1.960997 7.070313,0 1.960996,1.960996 1.960996,5.1093176 0,7.0703126 l -1.414063,1.414062 1.414063,1.414063 1.414062,-1.414063 c 2.725295,-2.725295 2.725295,-7.1731421 0,-9.8984371 C 24.481103,4.6822745 22.688081,4 20.894531,4 Z M 4,10 v 2 h 4 v -2 z m 3.4589844,4.529297 -1.4140625,1.414062 c -2.7252946,2.725295 -2.7252949,7.175096 0,9.900391 2.7252949,2.725295 7.1750951,2.725295 9.9003901,0 l 1.414063,-1.414062 -1.414063,-1.414063 -1.414062,1.414063 c -1.960995,1.960996 -5.1112692,1.960997 -7.0722656,0 -1.9609966,-1.960997 -1.9609969,-5.11127 0,-7.072266 L 8.8730469,15.943359 Z M 24,20 v 2 h 4 v -2 z m 0.707031,3.292969 -1.414062,1.414062 4,4 1.414062,-1.414062 z M 20,26 v 4 h 2 v -4 z" /></svg>
