<?xml version="1.0" encoding="UTF-8" standalone="no"?>
<!-- Created with Inkscape (http://www.inkscape.org/) -->

<svg
   width="32"
   height="32"
   viewBox="0 0 32 32"
   version="1.1"
   id="svg1"
   xml:space="preserve"
   xmlns="http://www.w3.org/2000/svg"
   xmlns:svg="http://www.w3.org/2000/svg"><defs
     id="defs1" /><path
     id="path388"
     style="fill:#f9f9f9;fill-opacity:1;stroke:none;stroke-width:2;stroke-linejoin:round;stroke-dasharray:none;stroke-opacity:1;paint-order:stroke fill markers"
     d="M 16,2 A 14,14 0 0 0 2,16 14,14 0 0 0 16,30 14,14 0 0 0 30,16 14,14 0 0 0 16,2 Z m 0,2 a 12,12 0 0 1 2,0.1679688 V 8 h 4 V 5.6074219 A 12,12 0 0 1 24.943359,8 H 22 v 4 h 4 a 14,14 0 0 1 -0.583984,4 H 22 v 4 h 1.488281 A 14,14 0 0 1 22,21.798828 V 20 h -4 v 4 h 1.210938 A 14,14 0 0 1 18,24.648438 V 24 h -4 v 1.855469 A 14,14 0 0 1 12,26 14,14 0 0 1 10,25.855469 V 24 H 7.0566406 A 12,12 0 0 1 6,22.632812 V 20 H 4.6855469 A 12,12 0 0 1 4,16 H 6 V 12 H 4.6855469 A 12,12 0 0 1 6,9.3671875 V 12 h 4 V 8 H 7.0566406 A 12,12 0 0 1 10,5.6074219 V 8 h 4 V 4.1679688 A 12,12 0 0 1 16,4 Z m -2,4 v 4 h 4 V 8 Z m 4,4 v 4 h 4 v -4 z m 0,4 h -4 v 4 h 4 z m -4,4 h -4 v 4 h 4 z m -4,0 V 16 H 6 v 4 z m 0,-4 h 4 v -4 h -4 z" /></svg>
