<?xml version="1.0" encoding="UTF-8" standalone="no"?>
<svg
   width="32"
   height="32"
   version="1.1"
   xml:space="preserve"
   style="clip-rule:evenodd;fill-rule:evenodd;stroke-linecap:round;stroke-linejoin:round;stroke-miterlimit:1.5"
   id="svg1"
   xmlns="http://www.w3.org/2000/svg"
   xmlns:svg="http://www.w3.org/2000/svg"><defs
   id="defs1" />
    
<path
   id="path62"
   style="baseline-shift:baseline;clip-rule:nonzero;display:inline;overflow:visible;opacity:1;vector-effect:none;fill:#fefffe;fill-rule:nonzero;stroke-linecap:butt;paint-order:stroke fill markers;enable-background:accumulate;stop-color:#000000;stop-opacity:1"
   d="M 17,4 A 2.0002,2.0002 0 0 0 15.585938,4.5859375 L 9.5859375,10.585938 12.414062,13.414062 17,8.828125 20.037109,11.865234 15.71875,15.462891 A 2.0002,2.0002 0 0 0 15,17 v 3 h 4 v -2.0625 l 5.28125,-4.400391 a 2.0002,2.0002 0 0 0 0.132812,-2.951171 l -6,-6.0000005 A 2.0002,2.0002 0 0 0 17,4 Z m 0,18 a 3,3 0 0 0 -3,3 3,3 0 0 0 3,3 3,3 0 0 0 3,-3 3,3 0 0 0 -3,-3 z" /></svg>
