<?xml version="1.0" encoding="UTF-8" standalone="no"?>
<svg
   width="32"
   height="32"
   version="1.1"
   xml:space="preserve"
   style="clip-rule:evenodd;fill-rule:evenodd;stroke-linecap:round;stroke-linejoin:round;stroke-miterlimit:1.5"
   id="svg1"
   xmlns="http://www.w3.org/2000/svg"
   xmlns:svg="http://www.w3.org/2000/svg"><defs
   id="defs1" />
    
<path
   id="rect74"
   style="fill:#fefffe;fill-opacity:1;stroke:none;stroke-width:2;stroke-linecap:butt;stroke-linejoin:round;stroke-dasharray:none;stroke-opacity:1;paint-order:stroke fill markers"
   d="M 20.142578,6.4863281 16,13.390625 V 12 h -2 v 2 h 1.634766 l -1.201172,2 H 14 v -2 h -2 v 2 2 2 0.05664 L 8.1425781,26.486328 9.8574219,27.513672 21.857422,7.5136719 Z M 4,12 v 2 2 2 2 2 H 6 V 20 18 H 8 V 16 H 6 V 14 H 8 V 12 H 6 Z m 4,2 v 2 h 2 v -2 z m 0,4 v 2 2 h 2 V 20 18 Z M 21.166016,12 20,13.943359 V 14 v 2 2 2 2 h 2 v -2 h 2 v 2 h 2 v -2 -2 -2 -2 -2 h -2 v 2 2 2 H 22 V 16 14 12 Z M 18,17.275391 16,20.609375 V 22 h 2 v -2 -2 z" /></svg>
