<?xml version="1.0" encoding="UTF-8" standalone="no"?>
<svg
   width="32"
   height="32"
   version="1.1"
   xml:space="preserve"
   style="clip-rule:evenodd;fill-rule:evenodd;stroke-linecap:round;stroke-linejoin:round;stroke-miterlimit:1.5"
   id="svg1"
   xmlns="http://www.w3.org/2000/svg"
   xmlns:svg="http://www.w3.org/2000/svg"><defs
   id="defs1" />
    
<path
   id="path106"
   style="baseline-shift:baseline;clip-rule:nonzero;display:inline;overflow:visible;opacity:1;vector-effect:none;fill:#fefffe;fill-rule:nonzero;stroke-linecap:butt;stroke-linejoin:round;stroke-miterlimit:1.5;paint-order:stroke fill markers;enable-background:accumulate;stop-color:#000000;stop-opacity:1"
   d="m 14,5.5 v 3 c 4.333333,0 6.579168,0.7332451 7.775391,2.021484 0.89231,0.960951 1.412153,2.49337 1.61914,4.81836 H 21.25 a 0.50005,0.50005 0 0 0 -0.433594,0.75 l 3.75,6.488281 a 0.50005,0.50005 0 0 0 0.867188,0 l 3.75,-6.488281 A 0.50005,0.50005 0 0 0 28.75,15.339844 H 26.414062 C 26.204565,12.480999 25.562778,10.188851 23.974609,8.4785156 21.920832,6.2667553 18.666667,5.5 14,5.5 Z M 7,9.171875 a 0.50005,0.50005 0 0 0 -0.4335938,0.25 l -3.75,6.488281 a 0.50005,0.50005 0 0 0 0.4335938,0.75 h 2.3359375 c 0.2094972,2.858845 0.8512846,5.150993 2.4394531,6.861328 C 10.079168,25.733245 13.333333,26.5 18,26.5 v -3 c -4.333333,0 -6.579168,-0.733245 -7.775391,-2.021484 -0.89231,-0.960951 -1.4121534,-2.49337 -1.6191402,-4.81836 H 10.75 a 0.50005,0.50005 0 0 0 0.433594,-0.75 L 7.4335938,9.421875 A 0.50005,0.50005 0 0 0 7,9.171875 Z" /></svg>
