<?xml version="1.0" encoding="UTF-8" standalone="no"?>
<svg
   width="32"
   height="32"
   version="1.1"
   xml:space="preserve"
   style="clip-rule:evenodd;fill-rule:evenodd;stroke-linecap:round;stroke-linejoin:round;stroke-miterlimit:1.5"
   id="svg1"
   xmlns="http://www.w3.org/2000/svg"
   xmlns:svg="http://www.w3.org/2000/svg"><defs
   id="defs1" />
    
<path
   id="rect110"
   style="baseline-shift:baseline;clip-rule:nonzero;display:inline;overflow:visible;opacity:1;vector-effect:none;fill:#fefffe;fill-rule:nonzero;stroke-linecap:butt;stroke-linejoin:miter;paint-order:stroke fill markers;enable-background:accumulate;stop-color:#000000;stop-opacity:1"
   d="M 5,6 C 3.3552972,6 2,7.3552972 2,9 v 10 c 0,1.644703 1.3552972,3 3,3 h 22 c 1.644703,0 3,-1.355297 3,-3 V 9 C 30,7.3552972 28.644703,6 27,6 Z m 0,2 h 1 v 6 H 8 V 8 h 4 v 6 h 2 V 8 h 4 v 6 h 2 V 8 h 4 v 6 h 2 V 8 h 1 c 0.571297,0 1,0.4287028 1,1 v 10 c 0,0.571297 -0.428703,1 -1,1 H 5 C 4.4287028,20 4,19.571297 4,19 V 9 C 4,8.4287028 4.4287028,8 5,8 Z" /></svg>
