<?xml version="1.0" encoding="UTF-8" standalone="no"?>
<svg
   width="32"
   height="32"
   version="1.1"
   xml:space="preserve"
   style="clip-rule:evenodd;fill-rule:evenodd;stroke-linecap:round;stroke-linejoin:round;stroke-miterlimit:1.5"
   id="svg1"
   xmlns="http://www.w3.org/2000/svg"
   xmlns:svg="http://www.w3.org/2000/svg"><defs
   id="defs1" />
    
<path
   id="path130"
   style="baseline-shift:baseline;clip-rule:nonzero;display:inline;overflow:visible;opacity:1;vector-effect:none;fill:#fefffe;fill-rule:nonzero;stroke-linecap:butt;paint-order:stroke fill markers;enable-background:accumulate;stop-color:#000000;stop-opacity:1"
   d="m 2,6 v 4 h 6 v 18 h 4 V 8 A 2.0002,2.0002 0 0 0 10,6 Z m 18,0 v 4 h 6 v 18 h 4 V 8 A 2.0002,2.0002 0 0 0 28,6 Z m -2,6 c -1.108,0 -2,0.892 -2,2 0,1.108 0.892,2 2,2 1.108,0 2,-0.892 2,-2 0,-1.108 -0.892,-2 -2,-2 z m 0,8 c -1.108,0 -2,0.892 -2,2 0,1.108 0.892,2 2,2 1.108,0 2,-0.892 2,-2 0,-1.108 -0.892,-2 -2,-2 z" /></svg>
