<?xml version="1.0" encoding="UTF-8" standalone="no"?>
<svg
   width="32"
   height="32"
   version="1.1"
   xml:space="preserve"
   style="clip-rule:evenodd;fill-rule:evenodd;stroke-linecap:round;stroke-linejoin:round;stroke-miterlimit:1.5"
   id="svg1"
   xmlns="http://www.w3.org/2000/svg"
   xmlns:svg="http://www.w3.org/2000/svg"><defs
   id="defs1" />
    
<path
   id="path130"
   style="baseline-shift:baseline;clip-rule:nonzero;display:inline;overflow:visible;vector-effect:none;fill:#fefffe;fill-rule:nonzero;stroke-linecap:butt;paint-order:stroke fill markers;enable-background:accumulate;stop-color:#000000;stop-opacity:1"
   d="M 27.457031,3.8886719 18.892578,4.5 a 0.61243393,0.61243393 0 0 0 -0.390625,1.0429688 l 2.916016,2.9179687 -4.478516,4.4785155 2.121094,2.121094 4.478515,-4.478516 2.917969,2.916016 A 0.61243393,0.61243393 0 0 0 27.5,13.107422 L 28.111328,4.5429688 A 0.61243393,0.61243393 0 0 0 27.457031,3.8886719 Z M 12.939453,16.939453 8.4609375,21.417969 5.5429688,18.501953 A 0.61243393,0.61243393 0 0 0 5.125,18.322266 0.61243393,0.61243393 0 0 0 4.8964844,18.361328 0.61243393,0.61243393 0 0 0 4.5,18.892578 l -0.6113281,8.564453 a 0.61243393,0.61243393 0 0 0 0.6542969,0.654297 L 13.107422,27.5 a 0.61243393,0.61243393 0 0 0 0.390625,-1.042969 l -2.916016,-2.917969 4.478516,-4.478515 z" /></svg>
