<?xml version="1.0" encoding="UTF-8" standalone="no"?>
<svg
   width="32"
   height="32"
   version="1.1"
   xml:space="preserve"
   style="clip-rule:evenodd;fill-rule:evenodd;stroke-linecap:round;stroke-linejoin:round;stroke-miterlimit:1.5"
   id="svg1"
   xmlns="http://www.w3.org/2000/svg"
   xmlns:svg="http://www.w3.org/2000/svg"><defs
   id="defs1" />
    
<path
   id="path131"
   style="baseline-shift:baseline;clip-rule:nonzero;display:inline;overflow:visible;opacity:1;vector-effect:none;fill:#fefffe;fill-rule:nonzero;stroke-linecap:butt;paint-order:stroke fill markers;enable-background:accumulate;stop-color:#000000;stop-opacity:1"
   d="M 12,2 C 6.4889971,2 2,6.4889971 2,12 c 0,5.511003 4.4889971,10 10,10 2.03443,0 3.930259,-0.611075 5.511719,-1.660156 L 27.585938,30.414062 30.414062,27.585938 20.339844,17.511719 C 21.388925,15.930259 22,14.03443 22,12 22,6.4889971 17.511003,2 12,2 Z m 0,2 c 4.430123,0 8,3.5698774 8,8 0,4.430123 -3.569877,8 -8,8 C 7.5698774,20 4,16.430123 4,12 4,7.5698774 7.5698774,4 12,4 Z" /></svg>
