<?xml version="1.0" encoding="UTF-8" standalone="no"?>
<svg
   width="32"
   height="32"
   version="1.1"
   xml:space="preserve"
   style="clip-rule:evenodd;fill-rule:evenodd;stroke-linecap:round;stroke-linejoin:round;stroke-miterlimit:1.5"
   id="svg1"
   sodipodi:docname="stroke.svg"
   inkscape:export-filename="..\icons\src\world.svg"
   inkscape:export-xdpi="96"
   inkscape:export-ydpi="96"
   inkscape:version="1.4.4 (dcaf3e7, 2026-05-05)"
   xmlns:inkscape="http://www.inkscape.org/namespaces/inkscape"
   xmlns:sodipodi="http://sodipodi.sourceforge.net/DTD/sodipodi-0.dtd"
   xmlns="http://www.w3.org/2000/svg"
   xmlns:svg="http://www.w3.org/2000/svg"><sodipodi:namedview
   id="namedview1"
   pagecolor="#000000"
   bordercolor="#000000"
   borderopacity="0.25"
   inkscape:showpageshadow="2"
   inkscape:pageopacity="0.0"
   inkscape:pagecheckerboard="true"
   inkscape:deskcolor="#d1d1d1"
   showgrid="true"
   inkscape:zoom="16"
   inkscape:cx="8.40625"
   inkscape:cy="14.40625"
   inkscape:window-width="1920"
   inkscape:window-height="1009"
   inkscape:window-x="-8"
   inkscape:window-y="-8"
   inkscape:window-maximized="1"
   inkscape:current-layer="svg1"><inkscape:grid
     id="grid1"
     units="px"
     originx="0"
     originy="0"
     spacingx="1"
     spacingy="1"
     empcolor="#0099e5"
     empopacity="0.30196078"
     color="#0099e5"
     opacity="0.14901961"
     empspacing="2"
     enabled="true"
     visible="true" /><inkscape:page
     x="0"
     y="0"
     width="32"
     height="32"
     id="page2"
     margin="0"
     bleed="0" /></sodipodi:namedview><defs
   id="defs1" />
    
<path
   id="path231"
   style="baseline-shift:baseline;clip-rule:nonzero;display:inline;overflow:visible;vector-effect:none;fill:#fefffe;fill-rule:nonzero;stroke-linecap:butt;paint-order:stroke fill markers;enable-background:accumulate;stop-color:#000000;stop-opacity:1;opacity:1"
   d="M 16 2 C 8.2798581 2 2 8.2798581 2 16 C 2 23.720142 8.2798581 30 16 30 C 19.806519 30 23.262959 28.473294 25.789062 26 L 26 26 L 26 25.789062 C 28.473294 23.262959 30 19.806519 30 16 C 30 8.2798581 23.720142 2 16 2 z M 16 4 C 18.958777 4 21.66427 5.0640228 23.753906 6.8320312 L 6.8320312 23.753906 C 5.0640228 21.66427 4 18.958777 4 16 C 4 9.3607384 9.3607384 4 16 4 z M 25.167969 8.2460938 C 26.09744 9.3446496 26.832119 10.613873 27.320312 12 L 21.414062 12 L 25.167969 8.2460938 z M 19.414062 14 L 27.833984 14 C 27.942571 14.650246 28 15.318385 28 16 L 17.414062 16 L 19.414062 14 z M 15.414062 18 L 27.833984 18 C 27.719014 18.688473 27.546816 19.356887 27.320312 20 L 13.414062 20 L 15.414062 18 z M 11.414062 22 L 26.400391 22 C 25.986655 22.71699 25.501108 23.386926 24.953125 24 L 9.4140625 24 L 11.414062 22 z M 9.3554688 26 L 22.644531 26 C 20.743305 27.264128 18.459851 28 16 28 C 13.54015 28 11.256695 27.264128 9.3554688 26 z " /></svg>
