<?xml version="1.0" encoding="UTF-8" standalone="no"?>
<svg
   width="32"
   height="32"
   version="1.1"
   xml:space="preserve"
   style="clip-rule:evenodd;fill-rule:evenodd;stroke-linecap:round;stroke-linejoin:round;stroke-miterlimit:1.5"
   id="svg1"
   xmlns="http://www.w3.org/2000/svg"
   xmlns:svg="http://www.w3.org/2000/svg"><defs
   id="defs1" />
    
<path
   id="path157"
   style="baseline-shift:baseline;clip-rule:nonzero;display:inline;overflow:visible;vector-effect:none;fill:#fefffe;fill-rule:nonzero;stroke-linecap:butt;paint-order:stroke fill markers;enable-background:accumulate;stop-color:#000000;stop-opacity:1"
   d="m 14.972656,3.4804688 a 0.4082888,0.4082888 0 0 0 -0.28125,0.140625 l -3.75,4.3242187 A 0.4082888,0.4082888 0 0 0 11.25,8.6210938 H 14 V 17 h 2 V 8.6210938 h 2.75 a 0.4082888,0.4082888 0 0 0 0.308594,-0.6757813 l -3.75,-4.3242187 A 0.4082888,0.4082888 0 0 0 14.972656,3.4804688 Z M 12.466797,18.154297 5.8261719,22.330078 4.3613281,20.001953 A 0.4082888,0.4082888 0 0 0 3.9882812,19.810547 0.4082888,0.4082888 0 0 0 3.625,20.099609 l -1.6640625,5.476563 a 0.4082888,0.4082888 0 0 0 0.328125,0.523437 l 5.6582031,0.871094 a 0.4082888,0.4082888 0 0 0 0.40625,-0.619141 L 6.8886719,24.023438 13.533203,19.845703 Z m 5.066406,0 -1.066406,1.691406 6.644531,4.177735 -1.464844,2.328124 a 0.4082888,0.4082888 0 0 0 0.40625,0.619141 l 5.658204,-0.871094 a 0.4082888,0.4082888 0 0 0 0.328124,-0.523437 L 26.375,20.099609 a 0.4082888,0.4082888 0 0 0 -0.363281,-0.289062 0.4082888,0.4082888 0 0 0 -0.373047,0.191406 l -1.464844,2.328125 z" /></svg>
