<?xml version="1.0" encoding="UTF-8" standalone="no"?>
<svg
   width="32"
   height="32"
   version="1.1"
   xml:space="preserve"
   style="clip-rule:evenodd;fill-rule:evenodd;stroke-linecap:round;stroke-linejoin:round;stroke-miterlimit:1.5"
   id="svg1"
   xmlns="http://www.w3.org/2000/svg"
   xmlns:svg="http://www.w3.org/2000/svg"><defs
   id="defs1" />
    
<path
   id="path171"
   style="baseline-shift:baseline;clip-rule:nonzero;display:inline;overflow:visible;vector-effect:none;fill:#fefffe;fill-rule:nonzero;stroke-linecap:butt;paint-order:stroke fill markers;enable-background:accumulate;stop-color:#000000;stop-opacity:1"
   d="m 15.96875,3.6445312 a 0.47145181,0.47145181 0 0 0 -0.277344,0.1132813 l -5,4.3261719 A 0.47145181,0.47145181 0 0 0 11,8.9121094 h 3 v 4.8984376 9.277344 h -3 a 0.47145181,0.47145181 0 0 0 -0.308594,0.828125 l 5,4.326172 a 0.47145181,0.47145181 0 0 0 0.617188,0 l 5,-4.326172 A 0.47145181,0.47145181 0 0 0 21,23.087891 H 18 V 13.810547 8.9121094 h 3 a 0.47145181,0.47145181 0 0 0 0.308594,-0.828125 l -5,-4.3261719 A 0.47145181,0.47145181 0 0 0 15.96875,3.6445312 Z" /></svg>
