<?xml version="1.0" encoding="UTF-8" standalone="no"?>
<svg
   width="32"
   height="32"
   version="1.1"
   xml:space="preserve"
   style="clip-rule:evenodd;fill-rule:evenodd;stroke-linecap:round;stroke-linejoin:round;stroke-miterlimit:1.5"
   id="svg1"
   xmlns="http://www.w3.org/2000/svg"
   xmlns:svg="http://www.w3.org/2000/svg"><defs
   id="defs1" />
    
<path
   id="path176"
   style="baseline-shift:baseline;clip-rule:nonzero;display:inline;overflow:visible;opacity:1;vector-effect:none;fill:#fefffe;fill-rule:nonzero;stroke-linecap:butt;paint-order:stroke fill markers;enable-background:accumulate;stop-color:#000000;stop-opacity:1"
   d="M 22.148438,2.4765625 19.59375,6.6289062 h -0.002 C 18.45616,6.2329168 17.255044,6 16,6 8.0359542,6 2.1918636,15.406608 2,16 c 0.1301207,0.402434 2.862006,4.863271 7.09375,7.689453 L 6.1484375,28.476562 7.8515625,29.523438 23.851562,3.5234375 Z M 16,8 c 0.829526,0 1.667705,0.1250632 2.515625,0.3789062 L 17.414062,10.169922 C 16.960234,10.059148 16.486774,10 16,10 c -3.301864,0 -6,2.698136 -6,6 0,1.478874 0.541328,2.836166 1.435547,3.884766 l -1.289063,2.09375 C 8.2177921,20.661626 6.2475605,18.685481 4.2402344,16 8.3263601,10.533757 12.259496,8 16,8 Z m 6.90625,0.3105469 -1.052734,1.7089841 C 23.782188,11.33672 25.752561,13.314849 27.759766,16 23.673366,21.466949 19.740738,24 16,24 15.171007,24 14.331801,23.874262 13.484375,23.621094 h -0.002 l -1.076172,1.75 C 13.542029,25.766893 14.745128,26 16,26 23.964046,26 29.808137,16.593392 30,16 29.869883,15.597576 27.137931,11.136676 22.90625,8.3105469 Z M 16,12 c 0.09481,0 0.188135,0.0034 0.28125,0.0098 l -3.720703,6.044922 C 12.203553,17.455174 12,16.753312 12,16 c 0,-2.220984 1.779016,-4 4,-4 z m 4.564453,0.115234 -1.126953,1.830078 C 19.794578,14.544718 20,15.246774 20,16 c 0,2.220984 -1.779016,4 -4,4 -0.09482,0 -0.188145,-0.0034 -0.28125,-0.0098 l -1.132812,1.839844 C 15.039824,21.940684 15.513148,22 16,22 c 3.301864,0 6,-2.698136 6,-6 0,-1.478836 -0.541244,-2.836307 -1.435547,-3.884766 z" /></svg>
