<?xml version="1.0" encoding="UTF-8" standalone="no"?>
<svg
   width="32"
   height="32"
   version="1.1"
   xml:space="preserve"
   style="clip-rule:evenodd;fill-rule:evenodd;stroke-linecap:round;stroke-linejoin:round;stroke-miterlimit:1.5"
   id="svg1"
   xmlns="http://www.w3.org/2000/svg"
   xmlns:svg="http://www.w3.org/2000/svg"><defs
   id="defs1" />
    
<path
   id="path182"
   style="baseline-shift:baseline;clip-rule:nonzero;display:inline;overflow:visible;opacity:1;vector-effect:none;fill:#fefffe;fill-rule:nonzero;stroke-linecap:butt;paint-order:stroke fill markers;enable-background:accumulate;stop-color:#000000;stop-opacity:1"
   d="M 16,2 A 1.0001,1.0001 0 0 0 15.105469,2.5527344 L 2.1054688,28.552734 A 1.0001,1.0001 0 0 0 3,30 h 26 a 1.0001,1.0001 0 0 0 0.894531,-1.447266 l -13,-25.9999996 A 1.0001,1.0001 0 0 0 16,2 Z M 16,5.2363281 27.382812,28 H 4.6171875 Z M 16,12 c -1.108,0 -2,0.892 -2,2 v 5 c 0,1.108 0.892,2 2,2 1.108,0 2,-0.892 2,-2 v -5 c 0,-1.108 -0.892,-2 -2,-2 z m 0,11 a 2,2 0 0 0 -2,2 2,2 0 0 0 2,2 2,2 0 0 0 2,-2 2,2 0 0 0 -2,-2 z" /></svg>
