<?xml version="1.0" encoding="UTF-8" standalone="no"?>
<svg
   width="32"
   height="32"
   version="1.1"
   xml:space="preserve"
   style="clip-rule:evenodd;fill-rule:evenodd;stroke-linecap:round;stroke-linejoin:round;stroke-miterlimit:1.5"
   id="svg1"
   xmlns="http://www.w3.org/2000/svg"
   xmlns:svg="http://www.w3.org/2000/svg"><defs
   id="defs1" />
    
<path
   id="path195"
   style="baseline-shift:baseline;clip-rule:nonzero;display:inline;overflow:visible;opacity:1;vector-effect:none;fill:#fefffe;fill-rule:nonzero;stroke-linecap:butt;stroke-linejoin:miter;paint-order:stroke fill markers;enable-background:accumulate;stop-color:#000000;stop-opacity:1"
   d="M 16,2 C 8.2798581,2 2,8.2798581 2,16 2,23.720142 8.2798581,30 16,30 23.720142,30 30,23.720142 30,16 30,8.2798581 23.720142,2 16,2 Z m -3.908203,0.5800781 c -1.414716,3.0652177 -2.3413398,6.1479397 -2.7812501,9.2363279 -0.3970456,2.787457 -0.3970456,5.579731 0,8.367188 C 7.6271529,19.766879 5.9383573,19.160595 4.2460938,18.429688 4.0853706,17.644993 4,16.833026 4,16 4,15.166976 4.0853713,14.355005 4.2460938,13.570312 5.9383149,12.839439 7.6273023,12.233115 9.3105469,11.816406 9.4115906,11.106895 9.5369608,10.398237 9.6894531,9.6894531 7.3126931,10.200885 4.9413782,11.001966 2.5800781,12.091797 3.4051546,11.710992 4.2312668,11.364945 5.0585938,11.054688 6.2584433,8.3969604 8.396963,6.258448 11.054688,5.0585938 11.364956,4.2312601 11.710994,3.405151 12.091797,2.5800781 Z m 7.816406,0 c 0.380803,0.8250729 0.72684,1.6511822 1.037109,2.4785157 2.657725,1.1998543 4.796245,3.3383666 5.996094,5.9960942 0.827327,0.310257 1.653439,0.656304 2.478516,1.037109 -2.3613,-1.089831 -4.732615,-1.890912 -7.109375,-2.4023439 0.07764,0.3608839 0.148941,0.7210829 0.212891,1.0820309 C 22.035609,8.032555 21.163407,5.2996862 19.908203,2.5800781 Z M 16,4 c 0.829679,0 1.638155,0.086626 2.419922,0.2460938 0.73013,1.6908098 1.294311,3.3765833 1.710937,5.0585937 C 18.754283,9.1109952 17.377551,9.0117188 16,9.0117188 c -1.370377,0 -2.739967,0.099345 -4.109375,0.2910156 0.4167,-1.682102 0.965075,-3.3676905 1.695313,-5.0585938 C 14.365868,4.0854569 15.172416,4 16,4 Z m 0,6.988281 c 1.538341,0 3.077212,0.131041 4.617188,0.394531 0.527221,3.080659 0.527221,6.153717 0,9.234376 -3.080062,0.527018 -6.154314,0.527018 -9.234376,0 -0.527221,-3.080659 -0.527221,-6.153717 0,-9.234376 C 12.922788,11.119322 14.461659,10.988281 16,10.988281 Z m 6.689453,0.828125 c 1.68323,0.416706 3.372247,1.023042 5.064453,1.753906 C 27.914629,14.355005 28,15.166976 28,16 c 0,0.833026 -0.08537,1.644993 -0.246094,2.429688 -1.692263,0.730907 -3.381059,1.337191 -5.064453,1.753906 -0.100993,0.709441 -0.226482,1.418241 -0.378906,2.126953 2.376883,-0.511334 4.747904,-1.312434 7.109375,-2.402344 -0.825128,0.380828 -1.651213,0.726843 -2.478516,1.037109 -1.199846,2.657687 -3.338408,4.796243 -5.996094,5.996094 -0.310294,0.827352 -0.656307,1.653445 -1.037109,2.478516 1.414716,-3.065218 2.34134,-6.14794 2.78125,-9.236328 0.397046,-2.787457 0.397046,-5.579731 0,-8.367188 z M 2.5800781,19.908203 c 2.361471,1.08991 4.732492,1.89101 7.109375,2.402344 -0.077185,-0.358879 -0.1472495,-0.717176 -0.2109375,-1.076172 0.4880261,2.736937 1.3589914,5.467909 2.6132814,8.185547 C 11.711002,28.594864 11.364978,27.768746 11.054688,26.941406 8.397003,25.741555 6.2584399,23.602999 5.0585938,20.945312 4.2312911,20.635046 3.4052062,20.289031 2.5800781,19.908203 Z m 9.2363279,2.78125 c 2.786468,0.396763 5.58072,0.396763 8.367188,0 -0.416721,1.683638 -1.023072,3.372001 -1.753906,5.064453 C 17.644995,27.914628 16.833023,28 16,28 15.166977,28 14.355005,27.91463 13.570312,27.753906 12.839478,26.061454 12.233127,24.373091 11.816406,22.689453 Z" /></svg>
