<?xml version="1.0" encoding="UTF-8" standalone="no"?>
<!-- Created with Inkscape (http://www.inkscape.org/) -->

<svg
   width="32"
   height="32"
   viewBox="0 0 32 32"
   version="1.1"
   id="svg1"
   inkscape:export-filename="anim_event.svg"
   inkscape:export-xdpi="96"
   inkscape:export-ydpi="96"
   inkscape:version="1.4.4 (dcaf3e7, 2026-05-05)"
   xml:space="preserve"
   xmlns:inkscape="http://www.inkscape.org/namespaces/inkscape"
   xmlns:sodipodi="http://sodipodi.sourceforge.net/DTD/sodipodi-0.dtd"
   xmlns="http://www.w3.org/2000/svg"
   xmlns:svg="http://www.w3.org/2000/svg"><sodipodi:namedview
     id="namedview1"
     pagecolor="#000000"
     bordercolor="#000000"
     borderopacity="0.25"
     inkscape:showpageshadow="2"
     inkscape:pageopacity="0.0"
     inkscape:pagecheckerboard="true"
     inkscape:deskcolor="#d1d1d1"
     inkscape:document-units="px"
     showgrid="true"><inkscape:grid
       id="grid2"
       units="px"
       originx="0"
       originy="0"
       spacingx="1"
       spacingy="1"
       empcolor="#0099e5"
       empopacity="0.30196078"
       color="#0099e5"
       opacity="0.14901961"
       empspacing="5"
       enabled="true"
       visible="true" /><inkscape:page
       x="0"
       y="0"
       width="32"
       height="32"
       id="page2"
       margin="0"
       bleed="0" /></sodipodi:namedview><defs
     id="defs1" /><g
     inkscape:label="Layer 1"
     inkscape:groupmode="layer"
     id="layer1"><path
       id="rect2"
       style="opacity:1;fill:#ffffff;stroke-width:1.3"
       d="M 9,10 1.6992188,30.033203 H 30.300781 L 25,10 Z m 4.159168,1.061156 h 3.787862 l -0.120455,2.413102 h 4.132826 l -0.224509,-2.413102 h 3.029835 l 0.500438,2.413102 h -3.305764 l 0.34544,3.712919 h 3.730322 l 0.996924,4.80715 h -4.280002 l -0.447244,-4.80715 h -4.663604 l -0.239959,4.80715 h -5.350807 l 0.927162,-4.80715 H 8.2473105 l 1.1406751,-3.712919 h 3.3057634 z m -0.465419,2.413102 -0.716116,3.712919 h 4.663604 l 0.185338,-3.712919 z m -5.9314332,8.546604 h 4.2830372 l -0.959474,4.974679 H 5.2340054 Z m 9.6376372,0 h 5.354601 l 0.46283,4.974679 h -6.065753 z"
       transform="translate(-0.15163138,-3.995541)" /></g></svg>
