<?xml version="1.0" encoding="UTF-8" standalone="no"?>
<!-- Created with Inkscape (http://www.inkscape.org/) -->

<svg
   width="32"
   height="32"
   viewBox="0 0 32 32"
   version="1.1"
   id="svg1"
   xmlns="http://www.w3.org/2000/svg"
   xmlns:svg="http://www.w3.org/2000/svg">
  <defs
     id="defs1" />
  <g
     id="layer1">
    <path
       id="path11"
       style="baseline-shift:baseline;display:inline;overflow:visible;opacity:1;vector-effect:none;fill:#ffffff;enable-background:accumulate;stop-color:#000000;stop-opacity:1"
       d="M 16,1.75 C 8.1329035,1.75 1.75,8.1329035 1.75,16 1.75,23.867097 8.1329035,30.25 16,30.25 23.867097,30.25 30.25,23.867097 30.25,16 30.25,8.1329035 23.867097,1.75 16,1.75 Z m 0,0.5 C 23.596876,2.25 29.75,8.4031235 29.75,16 29.75,23.596876 23.596876,29.75 16,29.75 8.4031235,29.75 2.25,23.596876 2.25,16 2.25,8.4031235 8.4031235,2.25 16,2.25 Z M 16,4.5 C 9.6546477,4.5 4.5,9.6546477 4.5,16 4.5,22.345352 9.6546477,27.5 16,27.5 22.345352,27.5 27.5,22.345352 27.5,16 27.5,9.6546477 22.345352,4.5 16,4.5 Z m 0,1 c 5.804912,0 10.5,4.695088 10.5,10.5 0,5.804912 -4.695088,10.5 -10.5,10.5 C 10.195088,26.5 5.5,21.804912 5.5,16 5.5,10.195088 10.195088,5.5 16,5.5 Z M 16,8 c -4.406433,0 -8,3.593567 -8,8 0,4.406433 3.593567,8 8,8 4.406433,0 8,-3.593567 8,-8 0,-4.406433 -3.593567,-8 -8,-8 z m 0,2 c 3.325553,0 6,2.674447 6,6 0,3.325553 -2.674447,6 -6,6 -3.325553,0 -6,-2.674447 -6,-6 0,-3.325553 2.674447,-6 6,-6 z m 0,2 c -2.197294,0 -4,1.802706 -4,4 0,2.197294 1.802706,4 4,4 2.197294,0 4,-1.802706 4,-4 0,-2.197294 -1.802706,-4 -4,-4 z" />
  </g>
</svg>
