<?xml version="1.0" encoding="UTF-8" standalone="no"?>
<!-- Created with Inkscape (http://www.inkscape.org/) -->

<svg
   width="32"
   height="32"
   viewBox="0 0 32 32"
   version="1.1"
   id="svg1"
   xml:space="preserve"
   xmlns="http://www.w3.org/2000/svg"
   xmlns:svg="http://www.w3.org/2000/svg"><defs
     id="defs1" /><path
     id="path73"
     style="baseline-shift:baseline;display:inline;overflow:visible;opacity:1;vector-effect:none;fill:#ffffff;stroke-linejoin:round;enable-background:accumulate;stop-color:#000000;stop-opacity:1"
     d="M 16,4.0019531 A 1.0001,1.0001 0 0 0 15.521484,4.1230469 L 4.5214844,10.123047 A 1.0001,1.0001 0 0 0 4.0019531,11 H 4 v 12 h 0.00195 a 1,1 0 0 0 0.5195313,0.876953 l 10.9999997,6 a 1.0001,1.0001 0 0 0 0.01367,0.0059 1.0001,1.0001 0 0 0 0.05469,0.02539 1.0001,1.0001 0 0 0 0.07031,0.0293 1.0001,1.0001 0 0 0 0.04102,0.01367 1.0001,1.0001 0 0 0 0.08984,0.02344 1.0001,1.0001 0 0 0 0.05273,0.0098 1.0001,1.0001 0 0 0 0.05273,0.0078 1.0001,1.0001 0 0 0 0.103516,0.0059 1.0001,1.0001 0 0 0 0.01563,0 1.0001,1.0001 0 0 0 0.109375,-0.0078 1.0001,1.0001 0 0 0 0.01953,-0.0039 1.0001,1.0001 0 0 0 0.08594,-0.01563 1.0001,1.0001 0 0 0 0.123047,-0.03711 1.0001,1.0001 0 0 0 0.01172,-0.0039 1.0001,1.0001 0 0 0 0.113282,-0.05273 l 11,-6 A 1.0001,1.0001 0 0 0 28,23 V 11 a 1.0001,1.0001 0 0 0 -0.03516,-0.251953 1.0001,1.0001 0 0 0 -0.002,-0.01172 1.0001,1.0001 0 0 0 -0.002,-0.0078 1.0001,1.0001 0 0 0 -0.103516,-0.238282 1.0001,1.0001 0 0 0 -0.07422,-0.109375 1.0001,1.0001 0 0 0 -0.08008,-0.08789 1.0001,1.0001 0 0 0 -0.0098,-0.01172 1.0001,1.0001 0 0 0 -0.0039,-0.0039 1.0001,1.0001 0 0 0 -0.07227,-0.06055 1.0001,1.0001 0 0 0 -0.02539,-0.02149 1.0001,1.0001 0 0 0 -0.0078,-0.0039 1.0001,1.0001 0 0 0 -0.07031,-0.04687 1.0001,1.0001 0 0 0 -0.03516,-0.02148 L 27.449094,10.10744 16.478516,4.1230469 A 1.0001,1.0001 0 0 0 16,4.0019531 Z M 16,6.1386719 24.914062,11 23.130859,11.972656 16,15.861328 7.0859375,11 Z m -10,6.5449221 9,4.908203 v 9.724609 L 6,22.408203 Z" /></svg>
