<?xml version="1.0" encoding="UTF-8" standalone="no"?>
<!-- Created with Inkscape (http://www.inkscape.org/) -->

<svg
   width="32"
   height="32"
   viewBox="0 0 32 32"
   version="1.1"
   id="svg1"
   xmlns="http://www.w3.org/2000/svg"
   xmlns:svg="http://www.w3.org/2000/svg">
  <defs
     id="defs1" />
  <path
     id="path7"
     style="baseline-shift:baseline;display:inline;overflow:visible;opacity:1;vector-effect:none;fill:#ffffff;enable-background:accumulate;stop-color:#000000;stop-opacity:1"
     d="m 21.121094,3.8847656 c -1.79355,0 -3.586571,0.6822745 -4.949219,2.0449219 L 14.757812,7.34375 16.171875,8.7578125 17.585938,7.34375 c 1.960995,-1.960997 5.109316,-1.960997 7.070312,0 1.960997,1.960996 1.960997,5.109317 0,7.070312 l -1.414062,1.414063 1.414062,1.414063 1.414062,-1.414063 c 2.725295,-2.725295 2.725295,-7.1731425 0,-9.8984375 C 24.707665,4.5670401 22.914644,3.8847656 21.121094,3.8847656 Z m -2.828125,8.4082034 -5.65625,5.65625 1.414062,1.414062 5.65625,-5.65625 z M 7.6855469,14.414062 6.2714844,15.828125 c -2.7252946,2.725295 -2.7252949,7.175096 0,9.900391 2.7252949,2.725295 7.1750956,2.725295 9.9003906,0 l 1.414063,-1.414063 -1.414063,-1.414062 -1.414063,1.414062 c -1.960995,1.960997 -5.1112687,1.960997 -7.0722651,0 -1.9609966,-1.960996 -1.9609969,-5.111269 0,-7.072265 l 1.4140625,-1.414063 z" />
</svg>
