<?xml version="1.0" encoding="UTF-8" standalone="no"?>
<!-- Created with Inkscape (http://www.inkscape.org/) -->

<svg
   width="32"
   height="32"
   viewBox="0 0 32 32"
   version="1.1"
   id="svg1"
   xml:space="preserve"
   xmlns="http://www.w3.org/2000/svg"
   xmlns:svg="http://www.w3.org/2000/svg"><defs
     id="defs1" /><path
     id="rect26"
     style="baseline-shift:baseline;display:inline;overflow:visible;opacity:1;vector-effect:none;fill:#ffffff;enable-background:accumulate;stop-color:#000000;stop-opacity:1"
     d="M 6,2 C 3.8012972,2 2,3.8012972 2,6 v 20 c 0,2.198703 1.8012972,4 4,4 h 18 l 6,-6 V 6 C 30,3.8012972 28.198703,2 26,2 Z m 0,2 h 20 c 1.125297,0 2,0.8747028 2,2 v 16 h -6 v 6 H 6 C 4.8747028,28 4,27.125297 4,26 V 6 C 4,4.8747028 4.8747028,4 6,4 Z M 6,6 V 8 H 8 V 6 Z m 2,2 v 2 h 2 V 8 Z m 2,0 h 2 V 6 h -2 z m 2,0 v 2 h 2 V 8 Z m 2,0 h 2 V 6 h -2 z m 2,0 v 2 h 2 V 8 Z m 2,0 h 2 V 6 h -2 z m 2,0 v 2 h 2 V 8 Z m 2,0 h 2 V 6 h -2 z m 2,0 v 2 h 2 V 8 Z m 0,2 h -2 v 2 h 2 z m 0,2 v 2 h 2 v -2 z m 0,2 h -2 v 2 h 2 z m 0,2 v 2 h 2 v -2 z m 0,2 h -2 v 2 h 2 z m -2,0 v -2 h -2 v 2 z m -2,0 h -2 v 2 h 2 z m -2,2 h -2 v 2 h 2 z m 0,2 v 2 h 2 v -2 z m 0,2 h -2 v 2 h 2 z m -2,0 v -2 h -2 v 2 z m -2,0 h -2 v 2 h 2 z m -2,0 v -2 h -2 v 2 z m -2,0 H 8 v 2 h 2 z M 8,24 V 22 H 6 v 2 z m 0,-2 h 2 V 20 H 8 Z M 8,20 V 18 H 6 v 2 z m 0,-2 h 2 V 16 H 8 Z M 8,16 V 14 H 6 v 2 z m 0,-2 h 2 V 12 H 8 Z M 8,12 V 10 H 6 v 2 z m 2,0 h 2 v -2 h -2 z m 2,0 v 2 h 2 v -2 z m 2,0 h 2 v -2 h -2 z m 2,0 v 2 h 2 v -2 z m 2,0 h 2 v -2 h -2 z m 2,0 v 2 h 2 v -2 z m 0,2 h -2 v 2 h 2 z m -2,2 h -2 v 2 h 2 z m -2,2 h -2 v 2 h 2 z m -2,2 h -2 v 2 h 2 z m -2,0 v -2 h -2 v 2 z m 0,-2 h 2 v -2 h -2 z m 0,-2 v -2 h -2 v 2 z m 2,0 h 2 v -2 h -2 z" /></svg>
