<?xml version="1.0" encoding="UTF-8" standalone="no"?>
<!-- Created with Inkscape (http://www.inkscape.org/) -->

<svg
   width="32"
   height="32"
   viewBox="0 0 32 32"
   version="1.1"
   id="svg1"
   xml:space="preserve"
   xmlns="http://www.w3.org/2000/svg"
   xmlns:svg="http://www.w3.org/2000/svg"><defs
     id="defs1" /><g
     style="fill:#ffffff;stroke-width:0.571429"
     id="g363"
     transform="matrix(0.03645833,0,0,0.03645833,-1.4999984,32.624998)"><path
       d="m 444,-96 v -96 h 72 v 96 z M 96,-444 v -72 h 96 v 72 z m 672,0 v -72 h 96 v 72 z m -42,261 -68,-68 51,-51 68,68 z m -492,0 -51,-51 68,-68 51,51 z m 110,-161.16 q -56,-56.16 -56,-135.84 0,-44 18.5,-83.5 Q 325,-603 360,-629 v -187 h 240 v 187 q 35,26 53.5,65.5 18.5,39.5 18.5,83.5 0,79.68 -56.23,135.84 Q 559.55,-288 479.77,-288 400,-288 344,-344.16 Z M 432,-665 q 12,-3.5 24,-5.25 12,-1.75 24,-1.75 12,0 24,1.75 12,1.75 24,5.25 v -79 h -96 z m 48.71,305 q 50.29,0 84.79,-35 34.5,-35 34.5,-85 0,-50 -34.5,-85 -34.5,-35 -84.79,-35 -50.3,0 -85.5,34.5 -35.21,34.5 -35.21,85 0,50.5 35.21,85.5 35.2,35 85.5,35 z M 480,-481 Z"
       id="path1"
       style="stroke-width:0.571429" /></g></svg>
