<?xml version="1.0" encoding="UTF-8" standalone="no"?>
<!-- Created with Inkscape (http://www.inkscape.org/) -->

<svg
   width="32"
   height="32"
   viewBox="0 0 32 32"
   version="1.1"
   id="svg1"
   xml:space="preserve"
   xmlns="http://www.w3.org/2000/svg"
   xmlns:svg="http://www.w3.org/2000/svg"><defs
     id="defs1" /><path
     id="path387"
     style="baseline-shift:baseline;display:inline;overflow:visible;opacity:1;vector-effect:none;fill:#ffffff;enable-background:accumulate;stop-color:#000000;stop-opacity:1"
     d="M 14,2 C 11.351851,2 8.9440106,2.7259835 6.7773438,4.1796875 4.6106769,5.6333912 3.0185186,7.574074 2,10 3.0185186,12.425926 4.6106769,14.366609 6.7773438,15.820312 8.9440106,17.274017 11.351851,18 14,18 16.648148,18 19.055989,17.274017 21.222656,15.820312 23.389323,14.366609 24.981481,12.425926 26,10 24.981481,7.574074 23.389323,5.6333912 21.222656,4.1796875 19.055989,2.7259835 16.648148,2 14,2 Z m 0,2 c 2.074074,0 3.990741,0.5372539 5.75,1.6113281 C 21.509259,6.6854021 22.860243,8.1481479 23.804688,10 22.860243,11.851852 21.509259,13.314598 19.75,14.388672 17.990741,15.462746 16.074074,16 14,16 11.925926,16 10.00926,15.462746 8.25,14.388672 6.4907407,13.314598 5.139757,11.851852 4.1953125,10 5.139757,8.1481479 6.4907407,6.6854021 8.25,5.6113281 10.00926,4.5372539 11.925926,4 14,4 Z m 0,1.3339844 c -1.296296,0 -2.39728,0.4539205 -3.304688,1.3613281 C 9.7879052,7.6027201 9.3339844,8.7037035 9.3339844,10 c 0,1.296296 0.4539208,2.39728 1.3613276,3.304688 0.907408,0.907407 2.008392,1.361328 3.304688,1.361328 1.296296,0 2.39728,-0.453921 3.304688,-1.361328 C 18.212095,12.39728 18.666016,11.296296 18.666016,10 c 0,-1.2962965 -0.453921,-2.3972799 -1.361328,-3.3046875 C 16.39728,5.7879049 15.296296,5.3339844 14,5.3339844 Z m 0,2 c 0.740741,0 1.370153,0.2588251 1.888672,0.7773437 0.518518,0.5185187 0.777344,1.147931 0.777344,1.8886719 0,0.740741 -0.258826,1.370154 -0.777344,1.888672 -0.518519,0.518519 -1.147931,0.777344 -1.888672,0.777344 -0.740741,0 -1.370153,-0.258825 -1.888672,-0.777344 C 11.59281,11.370154 11.333984,10.740741 11.333984,10 c 0,-0.7407409 0.258826,-1.3701532 0.777344,-1.8886719 C 12.629847,7.5928095 13.259259,7.3339844 14,7.3339844 Z m 6.707031,11.9589846 -1.414062,1.414062 6.646484,6.646485 h -6.070312 v 2 h 9.484375 v -9.484375 h -2 v 6.070312 z" /></svg>
