<?xml version="1.0" encoding="UTF-8" standalone="no"?>
<!-- Created with Inkscape (http://www.inkscape.org/) -->

<svg
   width="32"
   height="32"
   viewBox="0 0 32 32"
   version="1.1"
   id="svg1"
   xml:space="preserve"
   xmlns="http://www.w3.org/2000/svg"
   xmlns:svg="http://www.w3.org/2000/svg"><defs
     id="defs1" /><path
     id="circle419"
     style="fill:#f9f9f9;fill-opacity:1;stroke:none;stroke-width:2;stroke-linejoin:round;stroke-dasharray:none;stroke-opacity:1;paint-order:stroke fill markers"
     d="M 20,2 A 10,10 0 0 0 10.169922,10.167969 10,10 0 0 0 2,20 10,10 0 0 0 12,30 10,10 0 0 0 21.832031,21.830078 10,10 0 0 0 30,12 10,10 0 0 0 20,2 Z m 0,2.9296875 A 7.0710678,7.0710678 0 0 1 27.070312,12 7.0710678,7.0710678 0 0 1 21.927734,18.802734 10,10 0 0 0 21.337891,16.423828 c 0.71492,-0.289376 1.344009,-0.691665 1.86914,-1.216797 C 24.442734,13.971329 25,12.166667 25,10 h -2 c 0,1.833333 -0.442734,3.028671 -1.207031,3.792969 -0.352918,0.352917 -0.79841,0.638061 -1.355469,0.841797 A 10,10 0 0 0 13.197266,10.072266 7.0710678,7.0710678 0 0 1 20,4.9296875 Z M 12,13 v 2 C 10.166667,15 8.9713291,15.442734 8.2070312,16.207031 7.4427335,16.971329 7,18.166667 7,20 H 5 C 5,17.833333 5.5572665,16.028671 6.7929688,14.792969 8.028671,13.557266 9.8333333,13 12,13 Z" /></svg>
