<?xml version="1.0" encoding="UTF-8" standalone="no"?>
<!-- Created with Inkscape (http://www.inkscape.org/) -->

<svg
   width="32"
   height="32"
   viewBox="0 0 32 32"
   version="1.1"
   id="svg1"
   xml:space="preserve"
   xmlns="http://www.w3.org/2000/svg"
   xmlns:svg="http://www.w3.org/2000/svg"><defs
     id="defs1" /><path
     id="rect429"
     style="fill:#ffffff;fill-opacity:1;stroke:none;stroke-width:2;stroke-linejoin:round;stroke-dasharray:none;stroke-opacity:1;paint-order:stroke fill markers"
     d="M 4,2 V 4 H 2 V 6 H 4 V 8 H 6 V 6 H 8 V 4 H 6 V 2 Z m 22,0 v 2 h -2 v 2 h 2 v 2 h 2 V 6 h 2 V 4 H 28 V 2 Z M 10,4 V 6 H 22 V 4 Z M 8.7070312,7.2929688 7.2929688,8.7070312 15.142578,16.556641 a 10,10 0 0 1 1.394531,-1.433594 z M 4,10 V 22 H 6 V 10 Z m 22,0 v 3.251953 a 10,10 0 0 1 2,0.886719 V 10 Z m -4.300781,5.396484 -0.460938,2.154297 c -0.358974,0.128205 -0.705729,0.28145 -1.039062,0.460938 -0.333334,0.179487 -0.639824,0.397886 -0.921875,0.654297 l -2.078125,-0.615235 -1.230469,2.154297 1.578125,1.460938 c -0.07692,0.358974 -0.115234,0.737329 -0.115234,1.134765 0,0.397436 0.03831,0.775792 0.115234,1.134766 l -1.578125,1.5 1.230469,2.152344 2.115234,-0.652344 c 0.282051,0.230769 0.583784,0.435747 0.904297,0.615234 0.320513,0.179488 0.660557,0.332733 1.019531,0.460938 l 0.460938,2.154297 h 2.46289 L 24.699219,28 c 0.358974,-0.120257 0.699018,-0.263021 1.019531,-0.429688 0.320513,-0.166666 0.622246,-0.378355 0.904297,-0.634765 l 2.115234,0.615234 1.230469,-2.115234 -1.576172,-1.482422 c 0.05128,-0.345641 0.08959,-0.729267 0.115234,-1.152344 0.02564,-0.423077 7.52e-4,-0.801432 -0.07617,-1.134765 l 1.537109,-1.460938 -1.230469,-2.117187 -2.076172,0.578125 c -0.282051,-0.256411 -0.590494,-0.47481 -0.923828,-0.654297 -0.333333,-0.179488 -0.680088,-0.332733 -1.039062,-0.460938 l -0.5,-2.154297 z m 1.277343,4.615235 c 0.763847,0 1.416617,0.27256 1.955079,0.816406 0.538461,0.543846 0.80664,1.197091 0.80664,1.960937 0,0.763847 -0.27256,1.414664 -0.816406,1.953126 -0.543846,0.538461 -1.197091,0.808593 -1.960937,0.808593 -0.763847,0 -1.414664,-0.27256 -1.953126,-0.816406 -0.538461,-0.543846 -0.808593,-1.197091 -0.808593,-1.960937 0,-0.763847 0.27256,-1.414664 0.816406,-1.953126 0.543846,-0.538461 1.197091,-0.808593 1.960937,-0.808593 z M 4,24 v 2 H 2 v 2 h 2 v 2 H 6 V 28 H 8 V 26 H 6 v -2 z m 6,2 v 2 h 4.439453 a 10,10 0 0 1 -0.9375,-2 z" /></svg>
