<?xml version="1.0" encoding="UTF-8" standalone="no"?>
<!-- Created with Inkscape (http://www.inkscape.org/) -->

<svg
   width="32"
   height="32"
   viewBox="0 0 32 32"
   version="1.1"
   id="svg1"
   xml:space="preserve"
   xmlns="http://www.w3.org/2000/svg"
   xmlns:svg="http://www.w3.org/2000/svg"><defs
     id="defs1" /><path
     id="path445"
     style="baseline-shift:baseline;display:inline;overflow:visible;opacity:1;vector-effect:none;fill:#ffffff;stroke-linejoin:round;paint-order:stroke fill markers;enable-background:accumulate;stop-color:#000000;stop-opacity:1"
     d="M 11,2 A 5,5 0 0 0 6,7 v 18 a 5,5 0 0 0 4,4.898438 V 30 h 18 v -2 a 3,3 0 0 1 -3,-3 3,3 0 0 1 3,-3 V 21 2 h -1 z m 0,2 h 6 9 V 20.027344 H 11 V 20 a 5,5 0 0 0 -0.521484,0.02734 H 10 v 0.07422 A 5,5 0 0 0 8,21 V 7 a 3,3 0 0 1 3,-3 z m 6,0 a 1.0001,1.0001 0 0 0 -0.06445,0.00195 1.0001,1.0001 0 0 0 -0.490235,0.1660157 l -6,4 A 1.0001,1.0001 0 0 0 10,9 v 6 a 1.0001,1.0001 0 0 0 0.445312,0.832031 l 6,4 a 1.0001,1.0001 0 0 0 0.04102,0.02344 1.0001,1.0001 0 0 0 0.06055,0.03516 1.0001,1.0001 0 0 0 0.04297,0.01953 1.0001,1.0001 0 0 0 0.08008,0.0332 1.0001,1.0001 0 0 0 0.0918,0.02539 1.0001,1.0001 0 0 0 0.01953,0.0059 1.0001,1.0001 0 0 0 0.09961,0.01563 1.0001,1.0001 0 0 0 0.0332,0.0059 1.0001,1.0001 0 0 0 0.267579,-0.01367 1.0001,1.0001 0 0 0 0.002,0 1.0001,1.0001 0 0 0 0.128906,-0.0332 1.0001,1.0001 0 0 0 0.0078,-0.002 1.0001,1.0001 0 0 0 0.117188,-0.04883 1.0001,1.0001 0 0 0 0.002,-0.002 1.0001,1.0001 0 0 0 0.002,0 1.0001,1.0001 0 0 0 0.113282,-0.06445 l 6,-4 A 1.0001,1.0001 0 0 0 24,15 V 9 A 1.0001,1.0001 0 0 0 23.9902,8.8652344 1.0001,1.0001 0 0 0 23.96286,8.734375 1.0001,1.0001 0 0 0 23.93942,8.664063 1.0001,1.0001 0 0 0 23.91208,8.593751 a 1.0001,1.0001 0 0 0 0,-0.00195 1.0001,1.0001 0 0 0 -0.05469,-0.1054688 1.0001,1.0001 0 0 0 -0.0059,-0.00781 1.0001,1.0001 0 0 0 -0.05469,-0.080078 1.0001,1.0001 0 0 0 -0.01563,-0.021484 1.0001,1.0001 0 0 0 -0.002,-0.00391 1.0001,1.0001 0 0 0 -0.08203,-0.087891 1.0001,1.0001 0 0 0 -0.0078,-0.00781 1.0001,1.0001 0 0 0 -0.002,-0.00195 1.0001,1.0001 0 0 0 -0.08984,-0.074219 1.0001,1.0001 0 0 0 -0.01172,-0.00977 1.0001,1.0001 0 0 0 -0.0059,-0.00391 1.0001,1.0001 0 0 0 -0.02539,-0.019531 l -6,-4 A 1.0001,1.0001 0 0 0 17,4 Z M 17,6.2011719 21.197266,9 17,11.798828 12.802734,9 Z m -5,4.6679691 4,2.666015 v 3.597656 L 12,14.464844 Z M 10.595703,22.027344 H 23.980469 A 5,5 0 0 0 23,25 5,5 0 0 0 24,28 H 11 a 3,3 0 0 1 -3,-3 3,3 0 0 1 2.595703,-2.972656 z" /></svg>
