<?xml version="1.0" encoding="UTF-8" standalone="no"?>
<!-- Created with Inkscape (http://www.inkscape.org/) -->

<svg
   width="32"
   height="32"
   viewBox="0 0 32 32"
   version="1.1"
   id="svg1"
   xml:space="preserve"
   xmlns="http://www.w3.org/2000/svg"
   xmlns:svg="http://www.w3.org/2000/svg"><defs
     id="defs1" /><path
     id="rect429"
     style="fill:#ffffff;fill-opacity:1;stroke:none;stroke-width:2;stroke-linejoin:round;stroke-dasharray:none;stroke-opacity:1;paint-order:stroke fill markers"
     d="M 4,2 V 4 H 2 V 6 H 4 V 8 H 6 V 6 H 8 V 4 H 6 V 2 Z m 22,0 v 2 h -2 v 2 h 2 v 2 h 2 V 6 h 2 V 4 H 28 V 2 Z M 10,4 V 6 H 22 V 4 Z M 8.7070312,7.2929688 7.2929688,8.7070312 23.292969,24.707031 24.707031,23.292969 Z M 4,10 V 22 H 6 V 10 Z m 22,0 v 12 h 2 V 10 Z M 4,24 v 2 H 2 v 2 h 2 v 2 H 6 V 28 H 8 V 26 H 6 v -2 z m 22,0 v 2 h -2 v 2 h 2 v 2 h 2 v -2 h 2 v -2 h -2 v -2 z m -16,2 v 2 h 12 v -2 z" /></svg>
