<?xml version="1.0" encoding="UTF-8" standalone="no"?>
<!-- Created with Inkscape (http://www.inkscape.org/) -->

<svg
   width="32"
   height="32"
   viewBox="0 0 32 32"
   version="1.1"
   id="svg1"
   xml:space="preserve"
   xmlns="http://www.w3.org/2000/svg"
   xmlns:svg="http://www.w3.org/2000/svg"><defs
     id="defs1" /><g
     style="fill:#ffffff"
     id="g539"
     transform="matrix(0.02083333,0,0,0.02083333,4.0000016,13.499998)"><path
       d="m 766.19209,-123.39992 q -28.39201,0 -47.99201,-19.20801 -19.6,-19.208 -19.6,-47.6 0,-28.39202 19.208,-47.99202 19.208,-19.6 47.60001,-19.6 28.392,0 47.99201,19.208 19.6,19.208 19.6,47.60002 0,28.392 -19.208,47.992 -19.20801,19.60001 -47.60001,19.60001 z m 403.20001,0 q -28.392,0 -47.992,-19.20801 -19.6,-19.208 -19.6,-47.6 0,-28.39202 19.208,-47.99202 19.208,-19.6 47.6,-19.6 28.3921,0 47.9921,19.208 19.6,19.208 19.6,47.60002 0,28.392 -19.208,47.992 -19.208,19.60001 -47.6001,19.60001 z M 967.79212,-268.99996 q -28.392,0 -47.99201,-19.20799 -19.6,-19.208 -19.6,-47.60001 0,-28.392 19.208,-47.99201 19.20801,-19.6 47.60001,-19.6 28.39201,0 47.99198,19.208 19.6,19.20801 19.6,47.60001 0,28.39201 -19.208,47.99201 -19.20797,19.59999 -47.59998,19.59999 z m 201.59998,-145.60001 q -28.392,0 -47.992,-19.20801 -19.6,-19.208 -19.6,-47.6 0,-28.39201 19.208,-47.99201 19.208,-19.60001 47.6,-19.60001 28.3921,0 47.9921,19.20801 19.6,19.208 19.6,47.60001 0,28.392 -19.208,47.992 -19.208,19.60001 -47.6001,19.60001 z M 967.79212,22.200104 q -28.392,0 -47.99201,-19.2080028 -19.6,-19.2080042 -19.6,-47.6000092 0,-28.392005 19.208,-47.992008 19.20801,-19.600004 47.60001,-19.600004 28.39201,0 47.99198,19.208004 19.6,19.208003 19.6,47.600008 0,28.392005 -19.208,47.9920091 Q 996.18413,22.200104 967.79212,22.200104 Z M 1169.3921,167.80013 q -28.392,0 -47.992,-19.208 -19.6,-19.208 -19.6,-47.60001 0,-28.392007 19.208,-47.99201 19.208,-19.600004 47.6,-19.600004 28.3921,0 47.9921,19.208004 19.6,19.208003 19.6,47.60001 0,28.39201 -19.208,47.99201 -19.208,19.6 -47.6001,19.6 z M 116.19997,660.60022 H 564.20005 V 123.00012 H 116.19997 Z M -18.200058,795.00024 V 122.47746 q 0,-55.477348 39.480007,-94.677355 39.480007,-39.200007 94.920021,-39.200007 h 448.00008 q 55.44001,0 94.92002,39.480007 39.48001,39.480007 39.48001,94.920015 V 795.00024 Z M 116.19997,-11.399902 V -324.99996 q 0,-55.44001 39.48001,-94.92001 39.48001,-39.48001 94.92002,-39.48001 H 564.20005 V -11.399902 H 429.80003 V -324.99996 H 250.6 v 313.600058 z m 0,672.000122 h 448.00008 z"
       id="path1"
       style="stroke-width:1" /></g></svg>
