<?xml version="1.0" encoding="UTF-8" standalone="no"?>
<!-- Created with Inkscape (http://www.inkscape.org/) -->

<svg
   width="32"
   height="32"
   viewBox="0 0 32 32"
   version="1.1"
   id="svg1"
   xml:space="preserve"
   xmlns="http://www.w3.org/2000/svg"
   xmlns:svg="http://www.w3.org/2000/svg"><defs
     id="defs1" /><g
     style="fill:#ffffff;stroke-width:0.607143"
     id="g480"
     transform="matrix(0.03431372,0,0,0.03431372,-0.85382563,33.163485)"><path
       id="path1"
       d="m 452.97461,-880.02539 v 126.05078 h 54.05078 v -126.05078 z m 290.99414,95.8125 -89.30664,90.18164 38.33789,38.33984 89.36914,-89.36914 z m -527.875,0.9375 -37.49414,38.24414 88.49219,89.36914 39.12109,-38.36914 z M 480,-663.02539 c -42.16413,0 -79.27002,12.73855 -112.48438,38.60742 -37.24164,26.69795 -54.40087,67.32397 -70.3789,108.31836 -10.75488,-1.87621 -21.75852,-2.92578 -33.13672,-2.92578 -51.03611,0 -93.60073,17.4019 -129.53125,52.91016 -35.905077,35.48311 -53.494141,77.90396 -53.494141,129.18554 0,51.27372 17.604874,94.04586 53.546871,130.16797 35.94286,36.11566 78.4773,53.78711 129.47852,53.78711 h 156 c 34.20654,0 62.54949,-11.8451 86.89258,-36.35156 24.34,-24.50336 36.13281,-53.11451 36.13281,-87.67383 0,-8.34546 -0.81754,-16.39039 -2.30469,-24.23828 -0.65439,-5.14496 3.17501,-9.7723 8.35157,-10.0918 34.6413,-13.47146 61.91283,-35.14087 82.48242,-65.68359 21.05186,-31.25883 31.4707,-65.63182 31.4707,-103.98633 0,-50.94802 -17.53696,-93.29276 -53.35547,-128.92578 C 573.85152,-645.5587 531.24981,-663.02539 480,-663.02539 Z m 0,54.05078 c 35.08519,0 66.02644,12.59158 91.02734,37.06055 25.04902,24.51606 37.94727,55.47151 37.94727,90.91406 0,27.80074 -8.14313,53.52473 -24.13672,76.22852 -16.08901,22.83923 -38.23023,38.54293 -65.33398,46.39062 -3.29011,0.95216 -6.8353,-0.051 -9.13868,-2.58594 -18.39072,-20.24153 -40.91178,-32.52501 -68.83984,-37.17968 -3.04482,-0.50703 -5.61554,-2.54295 -6.80664,-5.39063 -14.72243,-35.20581 -37.16947,-63.00604 -67.80273,-84.06641 -3.90999,-2.68811 -7.89481,-5.19677 -11.94922,-7.55078 -4.97546,-3.35457 -5.3218,-10.55236 -0.69141,-14.36914 5.29095,-27.6861 19.27556,-51.34791 41.48828,-69.69726 v 0.002 C 419.6307,-598.9418 448.15854,-608.97461 480,-608.97461 Z m 272.97461,100.94922 v 54.05078 h 126.05078 v -54.05078 z M 264,-464.97461 c 31.96129,0 60.47114,10.76554 83.98242,31.7832 23.4555,20.9678 37.93657,47.99015 42.88672,79.8125 0.01,0.0644 0.0189,0.12881 0.0273,0.19336 l 0.96094,7.21094 H 420 c 19.00632,0 36.02326,6.9348 49.0957,20.16602 13.04591,13.20437 19.87891,30.19259 19.87891,49.09765 0,18.93609 -6.9219,35.99014 -20.0918,49.31055 -13.16816,13.32518 -30.09735,20.375 -48.88281,20.375 H 264 c -35.44032,0 -66.52546,-12.8686 -91.36523,-37.85742 -24.84051,-24.98245 -37.60938,-56.21302 -37.60938,-91.82813 0,-35.60884 12.78782,-66.65114 37.67383,-91.18164 24.85509,-24.50002 55.90311,-37.08203 91.30078,-37.08203 z m 428.12695,157.66797 -36.58789,37.33594 87.55664,90.18359 39.15039,-39.15039 z" /></g></svg>
