<?xml version="1.0" encoding="UTF-8" standalone="no"?>
<!-- Created with Inkscape (http://www.inkscape.org/) -->

<svg
   width="32"
   height="32"
   viewBox="0 0 32 32"
   version="1.1"
   id="svg1"
   xml:space="preserve"
   xmlns="http://www.w3.org/2000/svg"
   xmlns:svg="http://www.w3.org/2000/svg"><defs
     id="defs1" /><path
     id="rect6"
     style="baseline-shift:baseline;display:inline;overflow:visible;vector-effect:none;fill:#ffffff;enable-background:accumulate;stop-color:#000000"
     d="M 9,2 C 6.2472972,2 4,4.2472972 4,7 v 18 c 0,2.752703 2.2472972,5 5,5 h 14 c 2.752703,0 5,-2.247297 5,-5 V 11.619141 L 19.449219,2 Z m 0,2 h 9 v 8 h 8 v 13 c 0,1.679297 -1.320703,3 -3,3 H 9 C 7.3207028,28 6,26.679297 6,25 V 7 C 6,5.3207028 7.3207028,4 9,4 Z M 8,6 v 4 h 4 V 6 Z m 4,4 v 4 h 4 v -4 z m 4,4 v 4 h 4 v -4 z m 4,4 v 4 h 4 v -4 z m 0,4 h -4 v 4 h 4 z m -4,0 v -4 h -4 v 4 z m -4,0 H 8 v 4 h 4 z m 0,-4 V 14 H 8 v 4 z" /></svg>
