<?xml version="1.0" encoding="UTF-8" standalone="no"?>
<!-- Created with Inkscape (http://www.inkscape.org/) -->

<svg
   width="32"
   height="32"
   viewBox="0 0 32 32"
   version="1.1"
   id="svg1"
   xml:space="preserve"
   xmlns="http://www.w3.org/2000/svg"
   xmlns:svg="http://www.w3.org/2000/svg"><defs
     id="defs1" /><path
     id="path445"
     style="baseline-shift:baseline;display:inline;overflow:visible;vector-effect:none;fill:#ffffff;stroke-linejoin:round;paint-order:stroke fill markers;enable-background:accumulate;stop-color:#000000"
     d="m 22.935547,2.0019531 a 1.0001,1.0001 0 0 0 -0.490235,0.1660157 l -6,4 A 1.0001,1.0001 0 0 0 16,7 v 6 a 1.0001,1.0001 0 0 0 0.445312,0.832031 l 6,4 a 1.0001,1.0001 0 0 0 0.04102,0.02344 1.0001,1.0001 0 0 0 0.06055,0.03516 1.0001,1.0001 0 0 0 0.04297,0.01953 1.0001,1.0001 0 0 0 0.08008,0.0332 1.0001,1.0001 0 0 0 0.0918,0.02539 1.0001,1.0001 0 0 0 0.01953,0.0059 1.0001,1.0001 0 0 0 0.09961,0.01563 1.0001,1.0001 0 0 0 0.0332,0.0059 1.0001,1.0001 0 0 0 0.267579,-0.01367 1.0001,1.0001 0 0 0 0.002,0 1.0001,1.0001 0 0 0 0.128906,-0.0332 1.0001,1.0001 0 0 0 0.0078,-0.002 1.0001,1.0001 0 0 0 0.117188,-0.04883 1.0001,1.0001 0 0 0 0.002,-0.002 1.0001,1.0001 0 0 0 0.002,0 1.0001,1.0001 0 0 0 0.113282,-0.06445 l 6,-4 A 1.0001,1.0001 0 0 0 30,13 V 7 A 1.0001,1.0001 0 0 0 29.9902,6.8652344 1.0001,1.0001 0 0 0 29.96286,6.734375 1.0001,1.0001 0 0 0 29.93942,6.664063 1.0001,1.0001 0 0 0 29.91208,6.593751 a 1.0001,1.0001 0 0 0 0,-0.00195 1.0001,1.0001 0 0 0 -0.05469,-0.1054688 1.0001,1.0001 0 0 0 -0.0059,-0.00781 1.0001,1.0001 0 0 0 -0.05469,-0.080078 1.0001,1.0001 0 0 0 -0.01563,-0.021484 1.0001,1.0001 0 0 0 -0.002,-0.00391 1.0001,1.0001 0 0 0 -0.08203,-0.087891 1.0001,1.0001 0 0 0 -0.0078,-0.00781 1.0001,1.0001 0 0 0 -0.002,-0.00195 1.0001,1.0001 0 0 0 -0.08984,-0.074219 1.0001,1.0001 0 0 0 -0.01172,-0.00977 1.0001,1.0001 0 0 0 -0.0059,-0.00391 1.0001,1.0001 0 0 0 -0.02539,-0.019531 l -6,-4 A 1.0001,1.0001 0 0 0 22.935547,2.0019531 Z M 16,3 C 11.681373,3 9.0933648,3.371896 7.4824219,4.3066406 6.6769504,4.7740129 6.0915192,5.4960108 5.9589844,6.3203125 5.8264496,7.1446142 6.0998345,7.9188902 6.5097656,8.6269531 c 0.8198623,1.4161259 2.285651,2.7686409 3.9238284,4.1523439 1.638177,1.383703 3.453068,2.76102 4.925781,3.988281 2.991604,2.493004 6.425714,5.612633 7.21875,7.496094 0.198259,0.470865 0.230018,0.813785 0.179687,1.042969 -0.05033,0.229184 -0.157405,0.424257 -0.554687,0.683593 C 21.408561,26.508908 19.416667,27 16,27 v 2 c 3.583333,0 5.841439,-0.383908 7.296875,-1.333984 0.727718,-0.475039 1.245644,-1.162778 1.414063,-1.929688 0.16842,-0.76691 0.01268,-1.533365 -0.289063,-2.25 -1.206964,-2.866539 -4.772854,-5.74691 -7.78125,-8.253906 C 15.113338,13.959683 13.303229,12.587 11.722656,11.251953 10.142083,9.916906 8.7953721,8.5819211 8.2402344,7.6230469 7.9626655,7.1436098 7.9079254,6.8085108 7.9355469,6.6367188 7.9631683,6.4649268 8.0261746,6.3041121 8.4863281,6.0371094 9.4066352,5.503104 11.818627,5 16,5 Z M 23,4.2011719 27.197266,7 23,9.7988281 18.802734,7 Z m -5,4.6679687 4,2.6660154 v 3.597656 L 18,12.464844 Z M 8.9355469,14.001953 a 1.0001,1.0001 0 0 0 -0.4902344,0.166016 l -6,4 A 1.0001,1.0001 0 0 0 2,19 v 6 a 1.0001,1.0001 0 0 0 0.4453125,0.832031 l 6,4 a 1.0001,1.0001 0 0 0 0.041016,0.02344 1.0001,1.0001 0 0 0 0.060547,0.03516 1.0001,1.0001 0 0 0 0.042969,0.01953 1.0001,1.0001 0 0 0 0.080078,0.0332 1.0001,1.0001 0 0 0 0.091797,0.02539 1.0001,1.0001 0 0 0 0.019531,0.0059 1.0001,1.0001 0 0 0 0.099609,0.01563 1.0001,1.0001 0 0 0 0.033203,0.0059 1.0001,1.0001 0 0 0 0.2675781,-0.01367 1.0001,1.0001 0 0 0 0.00195,0 1.0001,1.0001 0 0 0 0.1289062,-0.0332 1.0001,1.0001 0 0 0 0.00781,-0.002 1.0001,1.0001 0 0 0 0.1171875,-0.04883 1.0001,1.0001 0 0 0 0.00195,-0.002 1.0001,1.0001 0 0 0 0.00195,0 1.0001,1.0001 0 0 0 0.1132813,-0.06445 l 6.0000004,-4 A 1.0001,1.0001 0 0 0 16,25 v -6 a 1.0001,1.0001 0 0 0 -0.0098,-0.134766 1.0001,1.0001 0 0 0 -0.02734,-0.130859 1.0001,1.0001 0 0 0 -0.02344,-0.07031 1.0001,1.0001 0 0 0 -0.02734,-0.07031 1.0001,1.0001 0 0 0 0,-0.002 1.0001,1.0001 0 0 0 -0.05469,-0.105469 1.0001,1.0001 0 0 0 -0.0059,-0.0078 1.0001,1.0001 0 0 0 -0.05469,-0.08008 1.0001,1.0001 0 0 0 -0.01563,-0.02148 1.0001,1.0001 0 0 0 -0.002,-0.0039 1.0001,1.0001 0 0 0 -0.08203,-0.08789 1.0001,1.0001 0 0 0 -0.0078,-0.0078 1.0001,1.0001 0 0 0 -0.002,-0.002 1.0001,1.0001 0 0 0 -0.08984,-0.07422 1.0001,1.0001 0 0 0 -0.01172,-0.0098 1.0001,1.0001 0 0 0 -0.0059,-0.0039 1.0001,1.0001 0 0 0 -0.02539,-0.01953 l -6.0000005,-4 A 1.0001,1.0001 0 0 0 8.9355469,14.001953 Z M 9,16.201172 13.197266,19 9,21.798828 4.8027344,19 Z m -5,4.667969 4,2.666015 v 3.597656 L 4,24.464844 Z" /></svg>
