<?xml version="1.0" encoding="UTF-8" standalone="no"?>
<!-- Created with Inkscape (http://www.inkscape.org/) -->

<svg
   width="32"
   height="32"
   viewBox="0 0 32 32"
   version="1.1"
   id="svg1"
   xml:space="preserve"
   xmlns="http://www.w3.org/2000/svg"
   xmlns:svg="http://www.w3.org/2000/svg"><defs
     id="defs1" /><path
     style="opacity:1;fill:#ffffff;fill-opacity:1;stroke:none;stroke-width:2;stroke-linecap:butt;stroke-linejoin:miter;stroke-dasharray:none;stroke-opacity:1;paint-order:stroke fill markers"
     d="M 26,7 C 24,3 19,3 18,6 L 14,2 c 1.333333,3.3333333 1.333333,6.6666667 0,10 l 4,-4 c 1,3 6,3 8,-1 z"
     id="path512" /><path
     style="fill:#ffffff;fill-opacity:1;stroke:none;stroke-width:2;stroke-linecap:butt;stroke-linejoin:miter;stroke-dasharray:none;stroke-opacity:1;paint-order:stroke fill markers"
     d="M 16,17 C 14,13 9,13 8,16 L 4,12 c 1.333333,3.333333 1.333333,6.666667 0,10 l 4,-4 c 1,3 6,3 8,-1 z"
     id="path512-1" /><path
     style="fill:#ffffff;fill-opacity:1;stroke:none;stroke-width:2;stroke-linecap:butt;stroke-linejoin:miter;stroke-dasharray:none;stroke-opacity:1;paint-order:stroke fill markers"
     d="m 30,23 c -2,-4 -7,-4 -8,-1 l -4,-4 c 1.333333,3.333333 1.333333,6.666667 0,10 l 4,-4 c 1,3 6,3 8,-1 z"
     id="path512-1-4" /></svg>
