<?xml version="1.0" encoding="UTF-8" standalone="no"?>
<svg
   width="32"
   height="32"
   version="1.1"
   xml:space="preserve"
   style="clip-rule:evenodd;fill-rule:evenodd;stroke-linecap:round;stroke-linejoin:round;stroke-miterlimit:1.5"
   id="svg1"
   xmlns="http://www.w3.org/2000/svg"
   xmlns:svg="http://www.w3.org/2000/svg"><defs
   id="defs1" />
    
<path
   id="path40"
   style="baseline-shift:baseline;clip-rule:nonzero;display:inline;overflow:visible;opacity:1;vector-effect:none;fill:#fefffe;fill-rule:nonzero;stroke-linecap:butt;paint-order:stroke fill markers;enable-background:accumulate;stop-color:#000000;stop-opacity:1"
   d="M 6,2 V 6 H 2 v 2 h 4 v 4 H 2 v 2 h 4 v 4 H 2 v 2 h 4 v 4 H 2 v 2 h 4 v 4 h 2 v -4 h 4 v 4 h 2 v -4 h 4 v 4 h 2 v -4 h 4 v 4 h 2 v -4 h 4 v -2 h -4 v -4 h 4 v -2 h -4 v -4 h 4 V 12 H 26 V 8 h 4 V 6 H 26 V 2 H 24 V 6 H 20 V 2 H 18 V 6 H 14 V 2 H 12 V 6 H 8 V 2 Z m 2,6 h 4 v 4 H 8 Z m 6,0 h 4 v 4 h -4 z m 6,0 h 4 v 4 H 20 Z M 8,14 h 4 v 4 H 8 Z m 6,0 h 4 v 4 h -4 z m 6,0 h 4 v 4 H 20 Z M 8,20 h 4 v 4 H 8 Z m 6,0 h 4 v 4 h -4 z m 6,0 h 4 v 4 h -4 z" /></svg>
